<?xml version="1.0" encoding="utf-8"?>
<!-- Generator: Adobe Illustrator 22.0.1, SVG Export Plug-In . SVG Version: 6.00 Build 0)  -->
<svg version="1.1" id="Layer_1" xmlns="http://www.w3.org/2000/svg" xmlns:xlink="http://www.w3.org/1999/xlink" x="0px" y="0px"
	 viewBox="0 0 1030.4 1047" style="enable-background:new 0 0 1030.4 1047;" xml:space="preserve">
<style type="text/css">
	.st0{fill:#F9F9F9;}
	.st1{fill:#72F9D1;}
	.st2{fill:#FF81D0;}
	.st3{fill:#FFFF5E;}
	.st4{opacity:0.25;enable-background:new    ;}
	.st5{fill:#FFFFFF;}
	.st6{fill:none;stroke:#FFFFFF;stroke-width:10;stroke-miterlimit:10;}
</style>
<title>background_2-1</title>
<rect class="st0" width="2052" height="1028.9"/>
<circle class="st1" cx="475.4" cy="178.6" r="30.5"/>
<circle class="st1" cx="943.6" cy="731.4" r="30.5"/>
<circle class="st1" cx="606.1" cy="485" r="30.5"/>
<circle class="st1" cx="99.1" cy="700.9" r="30.5"/>
<ellipse transform="matrix(0.3163 -0.9487 0.9487 0.3163 -604.2943 1131.3601)" class="st1" cx="482.7" cy="984.9" rx="30.5" ry="30.5"/>
<rect x="668.5" y="63.3" transform="matrix(0.1807 -0.9835 0.9835 0.1807 480.7602 760.6203)" class="st2" width="56.8" height="56.8"/>
<rect x="898.5" y="293.7" class="st2" width="57" height="57"/>
<rect x="903.2" y="931.7" transform="matrix(0.9056 -0.4242 0.4242 0.9056 -319.3506 485.9067)" class="st2" width="57" height="57"/>
<rect x="270.1" y="673.9" transform="matrix(0.1857 -0.9826 0.9826 0.1857 -447.0071 865.4658)" class="st2" width="57" height="57"/>
<polygon class="st3" points="188.9,521.8 258.1,486.2 193.4,444.2 "/>
<polygon class="st3" points="501,705.7 462.1,638.3 423.3,705 "/>
<polygon class="st3" points="751.6,816.3 712.6,749 673.8,815.6 "/>
<polygon class="st3" points="721.9,507.4 779.7,559.5 796.1,484.1 "/>
<polygon class="st3" points="151.8,848.4 209.6,900.5 226,825.1 "/>
<rect x="285.4" y="309.1" transform="matrix(0.6734 -0.7393 0.7393 0.6734 -147.0712 342.3289)" class="st2" width="57" height="57"/>
<path d="M685.7,34.1c8.2,1.5,16.4,3,24.6,4.5c4.6,0.8,6.1,3.3,5.3,7.8c-3,15.9-5.9,31.8-8.7,47.6c-0.8,4.2-3.2,6-7.4,5.2
	c-16-2.9-32.1-5.9-48.1-8.7c-4.1-0.7-5.8-2.8-5.1-6.9c3.1-17,6.2-34.1,9.2-51.1c0.6-3.1,2.6-3.4,5.2-2.9
	C669,31,677.4,32.5,685.7,34.1z M676.9,87.5L676.9,87.5c6.2,1.1,12.4,2.1,18.6,3.4c2.9,0.6,4.5-0.2,5-3.2c2.3-12.8,4.6-25.5,7-38.3
	c0.5-2.8-0.4-4.4-3.4-5c-12.6-2.2-25.2-4.5-37.8-6.8c-3.3-0.6-4.9,0.6-5.5,4c-2.1,12.3-4.3,24.6-6.7,36.8c-0.8,3.8,0.8,5.1,4.1,5.7
	C664.4,85.2,670.7,86.4,676.9,87.5z"/>
<path d="M875.1,299.1c0-8.3,0.1-16.6,0-25c0-3.9,2-5.4,5.5-5.4c16,0,31.9,0,47.9,0c7.9,0,8.3,0.4,8.3,8c0.1,15.6,0.1,31.3,0.2,46.9
	c0,6.1-1.2,7.5-7.2,7.4c-16.1-0.3-32.2-0.8-48.3-1c-4.6-0.1-6.6-1.7-6.4-6.5C875.3,315.4,875.1,307.2,875.1,299.1z M929.5,276.6h-47
	v45.6h47V276.6z"/>
<path d="M302.4,315.1c6.1,5.6,12.2,11.3,18.5,16.8c2.8,2.5,3.2,4.6,0.5,7.5c-11.3,12.2-22.5,24.6-33.7,36.9c-3,3.3-5.9,3.3-9,0.4
	l-36.2-33c-3-2.7-3.3-5.6-0.5-8.7c11.1-12.2,22.2-24.4,33.3-36.6c2.9-3.2,5.4-3.5,8.7-0.2C289.9,304.1,296.3,309.5,302.4,315.1z
	 M297.9,320.3l0.1-0.1c-4.7-4.3-9.4-8.4-14-12.8c-2.7-2.6-4.9-2.9-7.5,0.1c-8.3,9.3-16.7,18.6-25.2,27.7c-2.2,2.4-2.2,4.3,0.1,6.3
	c9.7,8.9,19.4,17.7,29.2,26.5c1.9,1.7,3.6,1.9,5.6-0.2c8.8-9.8,17.7-19.5,26.6-29.1c2-2.1,1.7-3.5-0.4-5.3
	C307.5,329.2,302.8,324.7,297.9,320.3L297.9,320.3z"/>
<path d="M874.1,959.8c-3.5-7.4-6.8-14.8-10.4-22.1c-2-4.1-0.8-6.6,3-8.4c14.5-6.8,28.9-13.6,43.4-20.4c5.5-2.6,7.3-1.9,9.8,3.5
	c6.8,14.6,13.5,29.3,20.5,43.9c1.8,3.9,1,6.3-2.8,8c-15,7.1-30,14.3-45.1,21.3c-3.2,1.5-6,1.1-7.7-2.8
	C881.5,975.1,877.7,967.5,874.1,959.8z M923.8,937.1l0.1-0.1c-2.8-6-5.7-12-8.4-18.1c-1.2-2.7-2.6-3.5-5.4-2.2
	c-12,5.7-24.1,11.4-36.2,16.9c-2.7,1.3-3.1,2.9-1.8,5.6c5.7,11.9,11.3,23.8,16.7,35.8c1.3,2.8,2.7,3.3,5.4,2
	c11.8-5.4,23.6-10.7,35.5-15.9c3.4-1.5,4.2-3,2.4-6.4C929.1,949,926.5,943,923.8,937.1L923.8,937.1z"/>
<path d="M256.3,670c1.6-8.5,3.3-17,4.8-25.5c0.6-3.5,2.3-4.3,5.5-3.7c16.5,3.2,33,6.3,49.5,9.4c4.3,0.8,5.8,2.8,4.9,7.3
	c-3.2,15.8-6.2,31.7-9,47.6c-0.8,4.8-3.5,6.2-7.6,5.5c-16.2-3-32.4-6-48.5-9.2c-3.7-0.7-5.2-2.9-4.3-6.9c1.7-8.1,3.1-16.3,4.7-24.5
	L256.3,670z M290.7,652.1c-6.4-1.2-12.8-2.3-19.1-3.7c-3.3-0.7-4.9,0.1-5.6,3.6c-2.3,12.9-4.8,25.9-7.3,38.7c-0.6,3,0.5,4.2,3.4,4.8
	c12.9,2.4,25.8,4.8,38.8,7.4c3.1,0.6,4.7-0.3,5.3-3.5c2.4-12.9,4.8-25.8,7.4-38.7c0.7-3.3-0.7-4.5-3.7-5
	C303.4,654.6,297.1,653.3,290.7,652.1L290.7,652.1z"/>
<path d="M833.8,490.5c2,0.9,4.2,1.2,3.1,5c-5,17.7-9.7,35.5-14.4,53.3c-1.2,4.6-2.4,9.2-3.6,13.8c-1.3,4.9-4.3,5.7-7.9,2.1
	c-6.5-6.6-13-13.4-19.5-20c-8.7-8.7-17.5-17.2-26.1-26c-1.7-1.8-3.5-4.3-3.6-6.6c0-1.1,3.6-2.8,5.8-3.4
	c21.3-5.9,42.7-11.5,64.1-17.3C832.3,491.1,833,490.8,833.8,490.5z M772.5,514.2l41.4,41c4.8-18.1,9.7-36.3,14.5-54.6l-1.6-1
	L772.5,514.2z"/>
<path d="M167.6,505.3v-33.5c0-5.9,1.7-6.9,6.6-4l58.7,33.8c4.6,2.6,4.7,5.1,0,7.7c-19.7,11.4-39.5,22.7-59.3,34
	c-4.3,2.5-6.1,1.5-6.1-3.5C167.4,528.3,167.5,516.8,167.6,505.3L167.6,505.3z M174.8,534.2c1.9-0.6,3.7-1.3,5.4-2.1
	c3.8-2.2,7.4-4.8,11.2-6.9c10-5.7,20.1-11.3,30.2-17c3.4-1.9,3.4-3.7,0-5.7c-12.3-7.2-24.6-14.3-36.9-21.3c-2.9-1.7-6.1-3-9.9-4.8
	L174.8,534.2z"/>
<path d="M240.5,86.3c-1.1,4.5-2.2,8.6-3.3,12.8c-5.1,18.8-10.2,37.6-15.3,56.4c-1.3,4.8-3.2,5.4-6.7,1.9
	c-16.3-16.2-32.5-32.4-48.8-48.7c-3.7-3.7-3.4-5.3,1.6-6.7c14-4,28-7.7,42.1-11.5c8.3-2.3,16.6-4.4,24.9-7
	C238.4,82.5,239.6,84.1,240.5,86.3z M231.6,93.2l-1.4-1l-54.1,14.6l40.8,41.4C221.9,129.7,226.8,111.5,231.6,93.2z"/>
<path d="M214.9,847c-1.9,7.2-3.8,14.9-5.9,22.5c-3.9,14.4-7.8,28.7-11.6,43.1c-1.5,5.7-3.9,6.4-8.2,2.1
	c-15.7-15.7-31.5-31.5-47.2-47.4c-1.1-1.2-2.6-3.6-2.2-4.4c1.1-1.7,2.8-3,4.8-3.5c14.3-4.1,28.6-7.9,43-11.8c7.3-2,14.6-4,22-5.6
	C214.1,841,215.2,842.2,214.9,847z M192.3,905.2c1-3.7,2.3-8.3,3.6-12.9c3.3-12.3,6.7-24.5,9.9-36.8c0.2-1.6,0.3-3.2,0.2-4.8
	c-1.6-0.1-3.1,0-4.7,0.3c-7.9,2-15.9,4.1-23.8,6.3c-8.8,2.4-17.6,4.9-26,7.3L192.3,905.2z"/>
<path d="M497.9,300.9l39.7-68.4l2,0.2c2.2,3.5,4.6,7,6.7,10.6c9.5,16.5,19,33,28.5,49.4c0.5,0.9,0.9,1.8,1.4,2.6
	c3,6.2,2.1,7.6-4.7,7.6c-21.8,0-43.6,0.1-65.5-0.1C503.5,302.9,501.2,301.7,497.9,300.9z M538.5,243.6L509,295
	c0.8,0.4,1.7,0.8,2.5,1c17.6,0.1,35.3,0.1,52.9,0.1c3.3,0,3.4-1.4,1.9-4.1c-7-12.1-13.8-24.4-20.8-36.6
	C543.4,251.8,541.2,248.3,538.5,243.6L538.5,243.6z"/>
<path d="M826.4,142.6c0-10.8-0.1-21.7,0-32.5c0-6.8,2.2-8.1,8-4.8c19.6,11.2,39.2,22.5,58.7,33.9c4.3,2.5,4.3,4.8-0.2,7.4
	c-14.1,8.2-28.4,16.1-42.6,24.3c-5.2,3-10.2,6.1-15.5,8.9c-1.8,1-4.8,2.1-6.1,1.4s-2.2-3.9-2.2-6
	C826.3,164.3,826.4,153.4,826.4,142.6z M833.5,142.3L833.5,142.3l-0.1,25.5c0,3.3,1,5,4.4,3c14.3-8.2,28.6-16.5,42.9-24.8
	c4.6-2.7,4.6-3.9,0-6.6c-14-8.1-28.1-16.1-42.2-24.2c-4.1-2.4-5-1.9-5.1,3.1C833.4,126.3,833.5,134.3,833.5,142.3L833.5,142.3z"/>
<path d="M686.5,804.6H653c-5.7,0-6.7-1.6-3.9-6.5C660.5,778,672,758,683.6,738c1.6-2.8,4.9-2.7,6.5,0.3
	c9.6,16.8,19.2,33.6,28.8,50.4c1.9,3.3,3.8,6.5,5.6,9.9c2.3,4.1,1.3,6-3.5,6.1c-7.7,0.2-15.3,0-23,0L686.5,804.6z M715.6,797.5
	c-0.2-1-0.5-2-0.9-3c-8.3-14.7-16.6-29.3-25-43.9c-2.1-3.6-3.8-3.5-6,0.3c-7.9,13.6-15.8,27.2-23.7,40.8c-0.9,1.6-1.3,3.5-2.1,5.8
	H715.6z"/>
<path d="M478.4,686.7c-11.2,0-22.3,0.1-33.5-0.1c-1.8,0-4.7-0.7-5-1.7c-0.5-1.7,0.2-4.1,1.2-5.8c9.6-16.8,19.5-33.5,29.2-50.2
	c1.4-2.4,2.6-5,4-7.4c2.6-4.3,5.6-4.4,8.1,0c6.9,11.7,13.5,23.5,20.3,35.2c4.5,7.8,9.1,15.6,13.4,23.6c0.8,1.4,1.4,3.5,0.9,4.9
	c-0.4,1-2.7,1.6-4.2,1.6C501.3,686.8,489.8,686.7,478.4,686.7L478.4,686.7z M508.8,680.4c-0.1-1.1,0.1-2.4-0.4-3.3
	c-2-3-4.4-5.8-6.3-8.8c-5.5-9.5-10.9-19-16.3-28.5c-2.2-3.8-4.6-7.6-7.4-12l-30.4,52.7L508.8,680.4z"/>
<path d="M560.1,463.8c-1-16.1,14.8-30.8,30.5-30.6c16.7,0.3,30.9,14.8,30.9,31.2c0,15-14.6,31.3-32,30.6
	C574.5,494.4,559.1,480.5,560.1,463.8z M566.8,463.9c0,13.1,10.5,23.7,23.5,24c13.1,0.1,23.9-10.9,24.2-24.6
	c0.2-11.7-11.3-23.1-23.5-23.3C577.8,440,567,450.6,566.8,463.9C566.9,463.9,566.9,463.9,566.8,463.9L566.8,463.9L566.8,463.9z"/>
<path d="M421,156.7c-1.4-16.6,15.1-30.8,29.9-30.9c17.7-0.2,32.6,14.4,31.5,32.5c-1.1,17.4-11.1,28.7-31.6,29
	C435,187.5,420.1,173.5,421,156.7z M427.6,156.4c-0.4,13.1,9.9,24,22.9,24.4c0,0,0,0,0,0h0.7c14.5,0.3,23.9-13.7,24.1-24.4
	c0.3-12.9-9.2-23.3-23.7-23.9C438.9,132,426.8,143.5,427.6,156.4z"/>
<path d="M925.5,741.6c-18.2-0.4-30.1-16.8-29.3-32.9c0.7-14.4,17.7-30,31.7-28.6c17.4,1.7,31.7,15,29.7,34.8
	C956,731,941.7,742.9,925.5,741.6z M927,734.9c13.2,0.5,24-11,24-23.8c0-11.3-9-23.8-23.8-23.8c-13.5,0-23.2,9.3-24,23
	S913.1,734.6,927,734.9L927,734.9z"/>
<path d="M468.8,1000c-17.5-0.1-29.8-13-30.3-30.7c-0.4-15.9,14.2-31,30.2-30.6c18.1,0.4,30.3,13.6,31.3,30.7
	C500.8,984.3,485.3,1001.6,468.8,1000z M468.4,993.4c13.9,1.8,23.9-12.8,24.7-24.7c0.8-11.2-11-23-22.8-23.3
	c-13.6-0.3-24.3,9.4-25,21.2C444.3,982.5,453.6,992.9,468.4,993.4L468.4,993.4z"/>
<path d="M78.1,710.8c-16.4-0.9-30.8-13-30.9-31.4c0-16.6,13.8-30.3,31.6-30.5c14.2-0.2,31.2,15.6,30.5,29.3
	C108.1,697.2,96.5,709.1,78.1,710.8z M54.2,678.2c-1.2,13.7,8.3,24.5,22.8,25.9c11,1,24.4-11.2,25-23.8c0.5-11.3-6.4-23.3-22.7-24.6
	C68.8,654.8,54.9,661.9,54.2,678.2z"/>
<path d="M650.4,577.1c-7.3,0.2-10.9,5.1-14.1,10.8c-1.9,3.4-4.2,6.7-6.7,9.8c-1.9,2.4-11.8,1.3-14.4-1.8c-3-3.7-5.6-7.7-7.8-12
	c-2.2-4.2-5.5-6.3-9.8-6.3c-4.5,0-7.6,2.6-9.6,6.8c-1.5,2.9-3.2,5.8-5,8.5c-4.7,7.6-14.5,8-19.9,0.7c-2.7-3.7-4.8-8-7.8-11.5
	c-1.8-2.1-4.9-3.1-7.4-4.7c-1.3-0.8-2.5-1.9-3.7-2.9c1.8-1.1,4.2-3.6,5.2-3.1c4.3,2,8.2,4.6,11.8,7.7c2.4,2.3,3.7,5.8,5.4,8.8
	c3,5.3,8.9,5.4,12.1,0.1c1.8-3,3.4-6.1,5.2-9c6.5-10.2,19.1-10.7,26.6-1.1c2.1,2.9,4,6,5.7,9.2c3.6,6.3,9.1,6.4,12.9,0.3
	c2.4-3.9,4.8-8,7.9-11.2c2.3-2.3,5.6-3.9,8.8-5C649.3,570.1,651,572.5,650.4,577.1z"/>
<path d="M756.1,422.8c0.1-4.4,2.5-5.5,5.9-5.7c5.7-0.3,10.6,1.9,15.2,5.1c1,0.7,1.8,1.5,2.7,2.2c2.8,2.1,6.1,5,9.3,2.4
	c2.3-1.9,3.5-5.6,4.5-8.7c1.3-4,1.5-8.5,2.9-12.4c3.8-10.3,15-11.8,23.9-5.8c2.7,1.8,5.3,3.8,8,5.6c5.1,3.5,10.2,1.2,10.9-5.1
	c0.4-3.6-0.1-7.5,1.2-10.8c1.9-4.1,4.4-7.9,7.4-11.3c0.7-0.8,3.6,0.4,5.5,0.6c-0.7,1.5-1.4,3.1-2.2,4.6c-1.7,3.1-3.9,6-5,9.3
	s-0.9,7.1-1.3,10.7c-1,8-7.2,12.1-14.8,9.2c-3.9-1.5-7.5-4.1-11-6.5c-7.2-5-13.8-4.8-17.5,2c-1.9,3.5-1.6,8.3-2.2,12.5
	c-0.7,5.3-1.8,10.1-7.4,12.5s-9.9,0.5-14.3-2.7c-5.5-3.9-10.6-9.5-18.6-6.3c-0.3,0.1-1-0.2-1.4-0.4S756.9,423.2,756.1,422.8z"/>
<path d="M397.9,399.4c1.1-8.1,6.3-11.8,11.5-15.4c2.4-1.7,5.3-2.9,7.5-4.8c3.9-3.5,3.4-6.7-0.9-9.7s-8.7-5.3-12.6-8.6
	c-8.8-7.4-6.1-20.5,4.1-26.1c2.9-1.6,5.9-3.1,8.7-4.8c3.9-2.4,4.6-6.5,1-9.4c-3.8-3.1-8.3-5.4-12.3-8.3s-6.7-6.6-6.5-11.7
	c0.1-1.4,1.7-2.8,2.6-4.1c1.3,0.9,3.6,1.8,3.6,2.7c-0.1,9.3,8.2,10.5,13.7,13.9c7.6,4.7,11.7,14.3,1.3,21.4c-4,2.8-8.2,5.4-11.9,8.5
	c-3.6,3.3-3.9,8.8-0.7,12.5c0,0,0,0,0,0l0.2,0.3c2.6,2.5,5.9,4.3,8.7,6.5s5.7,4.1,7.9,6.7c4.2,5.2,1.7,12.8-5.3,17.1
	c-2.5,1.6-5.1,3.1-7.7,4.4c-3.6,1.6-5.3,3.9-5.8,7.9c-0.2,1.7-2.8,3.1-4.3,4.6L397.9,399.4z"/>
<path d="M122.1,355.1c-8.1-0.9-11.4-6.1-15-11c-2.7-3.6-5.9-6.8-8.9-10.1c-3,3.3-6.4,6.3-8.9,9.9c-4.3,5.9-8.3,11.4-16.8,11.4
	c-7,0-11-4-14.5-9c-1.8-2.5-2.9-5.7-4.8-8.1c-1.4-1.7-3.7-3.6-5.7-3.6s-4.1,2-5.3,3.7c-2.1,2.9-3.6,6.3-5.4,9.5
	c-2.8,4.9-9,8.3-14.1,7.5c-1.1-0.2-2.8-1.2-2.8-1.9c0-1.2,1-3.5,1.6-3.5c10.1-0.6,12-9.6,16-16c4-6.2,11.5-8.3,16.8-3.1
	c3.1,3,5.5,7,8,10.6c2.9,4.3,5.8,8.7,11.7,7.2c3-0.9,5.8-2.6,7.8-5c3-3.5,4.8-7.9,7.5-11.6c5-6.7,14.5-5.7,19.2,1.7
	c2,3.2,3.5,6.8,5.9,9.7c1.8,2.1,4.6,3.3,6.9,5c1.7,1.2,3.2,2.6,4.8,3.9L122.1,355.1z"/>
<path d="M556,140.5c-4.4-3.3-4.7-8.6-0.7-12.5c3.5-3.3,7.5-5.9,11.3-8.8c1.5-1.1,3.1-1.9,4.4-3.2c3.4-3.1,2.9-7.6-1.1-9.9
	c-3-1.7-6.1-3.2-9.1-5c-5.7-3.3-9-8.8-8.8-14.8c0.2-5.8,2.8-11.6,9.2-14.3c2.8-1.2,5.3-3.3,8.1-4.8c4.6-2.6,5.4-6.9,1.2-10.4
	c-4.4-3.7-9.5-6.5-13.7-10.4c-2.2-2-3.4-5.4-4.4-8.4c-0.4-1.1,1.2-2.9,1.9-4.4c1.3,0.7,3.5,1.3,3.6,2.2c1.1,8.1,7.8,10.4,13.6,13.8
	c3.7,2.2,7.1,4.6,7.9,9.5c0.7,4.3-1.2,9.8-4.9,12.1c-2.8,1.8-5.6,3.6-8.5,5.1c-4.5,2.3-7.3,5.7-7.2,10.9c0.1,5,3.7,7.5,7.4,9.8
	c2.2,1.4,4.5,2.7,6.8,4c9.1,5.4,9.5,16.1-1.5,22.5c-1,0.6-2,1.1-3.1,1.7c-4.5,2.4-9.1,4.8-9.9,10.8
	C558.5,137.4,557.1,138.7,556,140.5z"/>
<path d="M843.4,746.3c0.7,7.1-6.2,9.1-11.2,12.6c-3,2.1-6.5,4.2-8.3,7.2c-3.2,5.4-1.2,9.8,4.4,13.1c3.8,2.3,7.5,4.8,11.2,7.3
	c5.8,3.8,5.4,13.9-1,18.4c-2.4,1.7-4.9,3.3-7.5,4.8c-4.4,2.4-7.7,5.6-8.9,10.7c-0.3,1.3-2.2,2.3-3.3,3.4c-0.9-1.5-2.6-3-2.4-4.3
	c0.4-5.4,3.4-10.3,8-13.1c3-1.8,6-3.4,9-5.2c4.4-2.5,5.1-7.3,1-10.5c-3.2-2.6-7-4.3-10.3-6.8c-13.4-10.2-9.1-22.9,3.8-30
	c2.5-1.2,4.8-2.7,7-4.5c3.5-3.2,2.7-7.9-1.5-10.3c-3.2-1.8-6.4-3.4-9.5-5.3c-4.8-2.8-6.8-7.6-7.7-12.8c-0.2-1.2,1.6-2.9,2.8-4
	c0.2-0.2,2.7,1,2.8,1.7c0.9,7.8,6.7,11,12.8,13.9C840,735.2,843.6,738.9,843.4,746.3z"/>
<path d="M301.2,755.8c1,1.7,2.5,3.2,2.9,4.8c1.1,4.9,4.5,7.3,8.4,9.8c4,2.4,7.6,5.3,10.8,8.7c3.4,3.8,1.5,12.1-2.9,15
	c-3.2,2.1-6.6,3.8-9.9,5.7c-4.1,2.3-6.5,5.6-6.4,10.4c0,4.5,2.5,7.3,6.3,9.3c2.3,1.2,4.5,2.8,6.9,4c11.7,6.2,9.4,17.3-0.3,23.2
	c-1.3,0.8-2.6,1.4-3.9,2.1c-4.3,2.3-8,5-9,10.4c-0.2,1.4-2.5,2.4-3.9,3.5c-0.7-1.7-2.1-3.3-2.1-5c0-6.1,4.6-9.3,8.9-12.5
	c2.4-1.8,5.1-3,7.6-4.7c6-4.1,5.9-8.3-0.4-12.1c-3.1-1.9-6.3-3.7-9.4-5.6c-9.5-5.8-9.6-20.1-0.2-26.4c3.1-2.1,6.7-3.6,9.7-5.9
	c1.9-1.5,4.5-4,4.3-5.9c-0.2-2.2-2.6-4.7-4.6-6.3c-4.1-3.3-9-5.7-12.7-9.3C296.6,765,296.8,759.9,301.2,755.8z"/>
<path d="M764.3,994.4c-2.2-1.7-5.8-3.9-8.6-6.8c-2-2.1-3.3-5-4.6-7.7c-2-4.2-4.7-6.9-9.9-6.9c-5.4,0-8,3.3-10.5,7.2
	c-1.6,2.5-3.1,5.1-4.6,7.6c-5.3,8.8-15.6,7.5-20.3,0.3c-1.8-2.8-3-6-5.2-8.3c-2.5-2.6-5.8-4.5-8.7-6.7c-1.5-1.1-2.8-2.3-4.2-3.5
	c1.7-1,3.5-2.7,5.2-2.7c6.2-0.1,9.7,4.3,12.8,8.9c1.8,2.6,2.9,5.6,4.5,8.3c2.8,4.9,8.2,5,11.2,0.2c2.2-3.5,4.2-7.1,6.2-10.7
	c4.9-8.6,20.4-10.1,26.4-0.2c1.6,2.7,3,5.6,4.9,8s4.5,5.8,7.2,6.1c2,0.2,4.8-3.3,6.8-5.6c3.2-3.8,5.6-8.2,9-11.7
	c1.9-1.9,5.2-2.6,8-3.2c1.2-0.2,2.7,1.2,4,1.9c-1,1.4-1.8,3.9-2.9,4c-7.9,0.6-9.7,7.2-12.8,12.5C775.5,990,772.1,993.7,764.3,994.4z
	"/>
<path d="M375.5,474.1c18.1,1.5,29.4,10.5,32.8,26.2c0.3,1.3,0.6,2.8,0.1,3.9c-0.7,1.5-2.1,2.6-3.2,4c-1.2-1.4-3.4-2.7-3.4-4.1
	c-0.4-13.1-8.3-19.5-19.8-22.7c-8.5-2.4-21.8,3.6-25.4,12.9c-1.2,3-1.4,6.4-2.6,9.4c-0.7,1.8-2.3,3.2-3.5,4.8
	c-1.1-1.6-3.4-3.4-3.3-4.9c0.7-9.8,5-18.1,13.3-23.4C365.6,476.9,371.9,475.5,375.5,474.1z"/>
<path d="M390.8,95c-2.4,0.6-4.9,1.9-7.2,1.5c-15.5-2.4-26.8-14-27.3-29.5c-0.5-12.4,7.2-24.2,19.4-29.2c3-1.3,6.3-2,9.6-2.1
	c1.7,0,3.5,2.2,5.2,3.4c-1.6,1.1-3.4,3.3-5,3.2c-12.5-0.6-24,13.4-22.8,25.7c1.1,10.8,10.8,21.5,21.9,22.1c2.1,0.1,4,1.4,6.1,2.2
	L390.8,95z"/>
<path d="M598,898c16-0.9,29.7,13.7,30.6,28.5c0.1,1.5-1.6,4.1-2.9,4.4c-2.8,0.7-3.9-1.4-4-4.2c-0.3-10.4-5.5-17.5-15.3-21
	c-13-4.5-27.4,0.9-31.7,14.8c-0.6,1.8,0,4.1-0.8,5.8c-0.9,1.8-2.8,3.2-4.2,4.8c-0.8-1.5-2.5-3-2.4-4.5
	C567.4,912.4,579.8,897.5,598,898z"/>
<path d="M759,326c-4.5,6.4-9.4,3.7-13.1,2.6c-12.2-3.6-18.8-12.6-21.8-24.7c-2.3-9.2,4.6-24.4,12.2-28.7c4.9-2.7,10.5-4.5,16-6.1
	c1.5-0.5,3.7,1.1,5.6,1.8c-1.4,1.3-2.6,3.3-4.3,3.8c-6.1,1.7-12.2,2.9-16.7,8c-6.1,7-8,15-5.5,23.6c2.8,9.2,9,15.3,19.1,16.6
	C753.2,323.4,755.7,324.8,759,326z"/>
<path d="M65.2,448c-0.1-0.8-0.1-1.6,0-2.5c0.7-1.2,1.6-2.4,2.5-3.5c1.1,1,2.7,1.8,3.2,3c1.9,4.9,3,10.1,5.4,14.7
	c3.1,6.3,15.7,11.3,22.6,9.5c15.2-4,18.1-9.9,21.2-23.1c0.4-1.6,2.2-3,3.3-4.4c1,1.8,2.9,3.7,2.7,5.4c-2.3,17.2-13.9,28.4-31.4,28.6
	C80.3,476,65.2,461.7,65.2,448z"/>
<path d="M60.8,943c0.4-14.8,10.7-28.8,26-31c1.1-0.2,2.4-1.2,3.3-0.9c1.7,0.6,3.1,1.9,4.6,2.9c-1.1,1.1-1.9,2.7-3.2,3.3
	c-4.3,1.8-8.9,3.2-13.3,4.9c-9.6,3.9-14.3,21.3-7.6,32.1c4.8,7.7,11.8,10.5,19.9,12.3c1.5,0.3,2.8,2,4.2,3c-1.8,1-3.7,3-5.4,2.9
	c-7.3-0.5-14.2-3.7-19.3-9C64.5,958,61.2,950.7,60.8,943z"/>
<path d="M997.2,231c-1.7-1.3-3.3-2.4-4.8-3.6c-2.9-2.2-5.7-6.2-8.6-6.2c-2.5,0-5,4.5-7.5,7c-0.5,0.5-0.8,1.3-1.3,1.4
	c-1.6,0.5-3.3,0.8-5,1.2c0.1-1.8-0.3-4.1,0.5-5.4c1.6-2.4,4.5-4.1,6-6.6c0.9-1.9,0.9-4-0.1-5.9c-1.8-2.7-4.7-4.7-6.8-7.3
	c-0.9-1.2-0.9-3.1-1.3-4.8c1.7,0.2,3.8-0.2,5.1,0.6c2.7,1.7,5.1,3.8,7.2,6.1c2.3,2.7,4.2,2,6.2-0.1c2.2-2.3,4.1-4.9,6.5-6.8
	c1.1-0.8,3.3-0.1,5.1-0.1c-0.2,1.5,0.2,3.4-0.6,4.4c-2.1,2.4-4.3,4.6-6.7,6.7c-2.2,2.2-2.2,4.3,0.1,6.4c2.6,2.5,5.3,5.1,7.7,7.8
	c0.6,0.9,0.9,2,0.7,3.1C999.3,229.8,998.1,230.2,997.2,231z"/>
<path d="M361.6,607.3c2.4-2.1,5.4-4.3,8-6.8c3.2-3.3,2.9-5.8-0.5-8.7c-1.8-1.5-3.5-3.1-5.1-4.7c-3.9-3.7-3.8-4,1.8-7.6l7.4,8.3
	c2.5,2.7,4.9,3.1,7.5,0.1c1.9-2.3,4.1-4.4,6.4-6.2c1.2-1,3-1.1,4.6-1.6c0,2,0.7,4.3-0.1,5.8c-1.3,2.3-3.5,4-5.4,5.8
	c-2.7,2.5-3.1,4.9,0.1,7.5c2.2,1.7,4.2,3.7,6,6c1,1.3,0.8,3.4,1.2,5.2c-1.9-0.2-4.3,0.2-5.7-0.8c-2.5-1.8-4.6-4.3-6.8-6.6
	s-3.9-2.2-5.9,0s-4,4.9-6.2,7.1C365.5,613.2,364.3,612.9,361.6,607.3z"/>
<path d="M216.5,255.6c-7.8-0.2-14-6.7-13.8-14.5c0,0,0,0,0,0c0-0.1,0-0.3,0-0.4c0.2-6.4,7.9-13.7,14.3-13.4
	c7.3,0.3,14.2,7.9,13.9,15.4C230.6,249.4,223.3,255.9,216.5,255.6z M216.7,248.4c3.6-0.1,6.5-3,6.7-6.6c-0.1-3.4-3.5-6.8-6.9-6.4
	c-3.7,0.4-6.1,2.6-6.4,6.4C209.9,245.1,213.2,248.4,216.7,248.4L216.7,248.4z"/>
<path d="M581.9,775.8c6.6-0.2,14.3,7.1,14.5,13.8c0.2,6.5-7.6,14.8-14.2,15s-14.4-7.8-14.5-14.6C567.7,783,574.5,776,581.9,775.8z
	 M582.4,783.6c-4.4,0.2-7.1,3.1-6.8,6.9s2.9,5.9,6.6,6c3.4,0,6.2-2.8,6.2-6.2c0,0,0,0,0,0c0-0.3,0-0.5,0-0.8
	C588,785.6,585.7,783.7,582.4,783.6z"/>
<path d="M658.3,367.5c-0.3-2.7-1.2-4.8-0.5-5.8c2.3-3.3,4.8-6.3,7.6-9.1c1.9-2,2.1-3.5-0.3-5.2c-2.5-1.7-4.8-3.6-6.8-5.8
	c-1.1-1.3-2-4.1-1.3-5.2c1.7-2.7,3.9-1.3,5.7,0.7c1,1.1,2.1,2.1,3.2,3.2c6,5.8,6,5.8,11.6,0c1.6-1.9,3.4-3.6,5.3-5.3
	c0.9-0.7,2.5-0.5,3.7-0.7c0.1,1.4,0.7,3.2,0.1,4.1c-2,2.9-4.4,5.4-6.6,8c-1.9,2.2-3,4.2,0.2,6.5c2.6,1.8,4.8,4.1,6.6,6.7
	c0.8,1.1,0,3.4,0,5.1c-1.5-0.3-3.3-0.1-4.5-0.9c-1.9-1.3-3.4-3.2-5-4.8c-4.4-4.3-4.9-4.4-9.2-0.2c-1.9,1.9-3.7,3.8-5.7,5.6
	C661.7,365.2,660.7,365.7,658.3,367.5z"/>
<path d="M105.1,597c-6.9,1.1-13.8-7.5-13.4-14.2c0.5-7.2,6.8-14.1,13.6-13.9s14.5,7.6,14.6,13.9C120.1,590.4,113.1,597.1,105.1,597z
	 M106.4,589.8c3.2-0.2,5.3-2.5,5.7-6.2c0.4-3.4-3-6.9-6.5-6.7c-3.8,0.2-6.2,2.4-6.5,6.3C98.8,586.6,102.1,589.9,106.4,589.8
	L106.4,589.8z"/>
<path d="M51.8,808.1c-0.8-1.1-1.7-2.1-2.6-3c-2.3-2-5-3.5-6.8-5.8c-1-1.3-0.7-3.8-1-5.7c1.7,0.3,3.8,0.1,5.1,1
	c3.3,2.4,6.3,7.4,9.4,7.4s6.1-4.9,9.1-7.6c0.6-0.5,1.1-1.5,1.8-1.6c1.4-0.2,2.8-0.3,4.2-0.2c0,1.6,0.8,3.7,0,4.7
	c-2.3,2.8-4.9,5.5-7.6,7.9c-1.8,1.8-2,3.1,0.1,4.9c2.7,2.2,5.2,4.7,7.4,7.4c1,1.2,0.5,3.5,0.7,5.3c-1.7-0.3-3.9,0-5.2-0.9
	c-2.5-2-4.7-4.2-6.8-6.6c-2.3-2.4-4.3-2.1-6.3,0.2s-3.5,5-5.8,6.8c-1.4,1.1-4,0.7-6,0.9c0.5-1.7,0.6-3.7,1.6-5
	c1.8-2.4,4.2-4.3,6.2-6.5C50.3,810.4,51.1,809.3,51.8,808.1z"/>
<path d="M813.3,250.1c-8.2-0.1-13.8-5.9-13.8-14.4c0.1-7.2,6.5-14,13.7-13.6c6.5,0.3,14.4,5.5,14.3,15
	C827.5,243.9,820.5,250.2,813.3,250.1z M813.6,243c3.5-0.1,6.8-3.4,6.4-6.8c-0.1-3.5-3-6.3-6.5-6.3c-3.3-0.3-6.8,3.3-6.7,6.6
	C807,240.2,810,243,813.6,243L813.6,243z"/>
<path d="M966.9,609.4c7.6,0,13.8,6.2,13.8,13.9c0,0,0,0,0,0c0,0.2,0,0.3,0,0.5c-0.3,8.5-7.3,13.3-14.3,13.6
	c-7.7,0.3-14.1-7.1-13.8-15.1C952.8,615.5,959.7,609.3,966.9,609.4z M973.3,622.8c-0.3-3.6-3.4-6.4-7-6.3c-3.9,0.3-5.9,2.8-6.2,6.5
	c-0.3,3.3,3.4,6.7,6.7,6.6S973.5,626.1,973.3,622.8L973.3,622.8z"/>
<path d="M496.4,505.3c-7.4,0.2-13.6-5.8-13.7-13.2c0,0,0,0,0,0c0-0.2,0-0.5,0-0.7c0-7.5,6.6-14.2,13.9-14.1
	c7.8,0.3,14.1,6.6,14.1,14.5C510.6,499.1,504.1,505.3,496.4,505.3z M496.8,498.1c3.4-0.1,6.8-3.6,6.4-6.9c-0.5-3.7-2.8-6-6.6-6.3
	c-3.3-0.2-6.7,3.4-6.6,6.7C490.2,495.3,493.1,498.1,496.8,498.1z"/>
<path d="M764.1,895.2l8.7-7.7c2.8-2.4,2.5-4.7-0.1-7.1c-2.4-2.1-4.6-4.3-6.6-6.8c-0.9-1.1-0.7-3-1-4.6c1.7,0.1,3.6-0.2,4.9,0.5
	c2.2,1.2,4.1,2.8,5.7,4.8c3.3,3.8,6,3.3,9-0.4c1.5-2,3.3-3.8,5.3-5.3c1-0.8,2.8-0.6,4.2-0.9c0.2,1.8,1.2,4.1,0.4,5.2
	c-2,2.6-4.4,5-6.9,7.1c-2.5,2.2-2.2,4.2,0,6.3c2.4,2,4.7,4.2,6.8,6.6c1,1.3,1,3.4,1.5,5.2c-1.7-0.4-3.6-0.4-4.9-1.3
	c-2.3-1.6-4.5-3.4-6.5-5.4c-3.2-3.1-5.7-2.5-8.2,1c-1.2,1.6-2.5,3.1-3.8,4.6C769.1,900.8,767.9,900.7,764.1,895.2z"/>
<path d="M44,183.6c-2.9,3.6-5.6,7.2-8.7,10.3c-1,1-3.2,0.6-4.9,0.8c0.3-1.6,0.1-3.4,0.8-4.6c1.3-1.9,2.9-3.7,4.5-5.3
	c4.6-5.2,4.6-5.5-0.5-10.5c-1.9-1.6-3.6-3.4-5.2-5.3c-0.6-0.7-0.6-2.9-0.1-3.3c0.9-0.7,2.9-1,3.7-0.5c3.2,2.1,6.1,4.5,8.8,7.2
	c2.3,2.5,3.8,1.9,5.6-0.2c2-2.4,4.3-4.6,6.7-6.7c1.1-0.9,3-0.6,4.6-0.9c-0.2,1.5,0,3.2-0.7,4.3c-1.6,2.5-3.5,4.8-5.6,7
	c-2.4,2.7-2.1,4.9,0.5,7.3c2,1.7,3.9,3.6,5.6,5.7c0.9,1.2,1.1,3,1.6,4.4c-1.9,0-4.3,0.8-5.6-0.1C51.6,191,48.6,187.9,44,183.6z"/>
<path d="M805.5,644.2c3.3,3,6.2,5.7,9.2,8.3c2.7,2.4,3.2,4.5-0.9,7.4c-2.9-2.6-6-5.1-8.9-8c-2.7-2.7-5-2.9-7.5,0
	c-1.9,2.3-4,4.4-6.3,6.4c-1.1,0.9-3,0.8-4.6,1.1c0.3-1.6,0.1-3.6,1-4.8c2.1-3,4.4-5.8,6.9-8.5c1.7-1.9,1.7-3.4-0.3-5
	c-2.6-2.1-5-4.3-7.3-6.8c-0.9-1-0.6-3-0.9-4.5c1.6,0.1,3.6-0.3,4.6,0.5c10.4,8.5,10.3,8.5,20.3-0.8c1-0.9,2.9-0.7,4.4-1
	c-0.1,1.7,0.5,3.9-0.4,5.1C812.3,637,809.2,640,805.5,644.2z"/>
<path d="M912.9,47.7c-9.2,0-18.3,0.2-27.4-0.2c-2.1-0.1-4.1-2.3-6.2-3.5c2-1.1,3.9-3.2,5.9-3.2c18.6-0.2,37.2-0.2,55.8-0.1
	c1.2-0.1,2.3,0,3.4,0.5c1.1,0.6,2.5,1.8,2.5,2.8c-0.2,1.3-1.1,2.4-2.3,3c-2.4,0.5-4.9,0.7-7.4,0.6C929.1,47.8,921,47.7,912.9,47.7z"
	/>
<path d="M363.4,203.6c-1.8,2-3.3,3.9-5,5.6c-7,7.1-8,5.6,0.2,13.6c1.3,1,2.5,2.2,3.5,3.5c0.7,1,0.7,2.4,0.9,3.7
	c-1.6,0-3.5,0.7-4.6-0.1c-2.6-1.8-5-3.9-7.2-6.1c-3-2.8-5.6-2.1-8.1,0.7c-1.6,1.9-2.8,4.4-4.7,5.7c-1.4,1-4.2,1.4-5.5,0.6
	c-2.8-1.7-0.3-3.3,1-4.6c9-9.6,8.9-9.5,0-19c-1.2-1.3-1.3-3.6-1.9-5.4c2,0.3,4.4,0.1,6.1,1.1c3.3,1.9,6.5,6.5,9.4,6.3
	c3.1-0.2,5.9-4.8,9-7.2c1.2-1,2.6-1.6,4.2-1.7C361.5,200.2,362.2,202,363.4,203.6z"/>
<path d="M110.2,40.4c0.9,0.8,2.2,1.5,2.2,2c-0.2,1.8-0.3,4.1-1.4,5.3c-3.9,4.3-8.2,8.3-12.3,12.5c-9.6,9.5-19.1,19-28.6,28.6
	c-1.9,2-4.1,3.8-6.1,1.2c-0.7-0.9,0.4-4.3,1.7-5.6c13.8-14,27.8-27.8,41.7-41.7C108.3,41.8,109.2,41.1,110.2,40.4z"/>
<path d="M429.5,852.7c-1.1-0.8-2.8-1.5-2.7-2c0.1-1.5,0.7-3,1.7-4.2c8.5-8.7,17.1-17.2,25.7-25.8c5.3-5.3,10.5-10.7,16-15.7
	c1.2-1,3.6-0.7,5.5-1c-0.3,1.8,0,4.1-1,5.2c-13.6,13.9-27.4,27.6-41.3,41.3C432.2,851.3,430.8,852.1,429.5,852.7z"/>
<path d="M128,250.8c9.6-0.1,19.3-0.3,28.9,0c1.9,0,3.7,1.7,5.6,2.6c-1.8,1.1-3.5,3.1-5.2,3.1c-19.3,0.3-38.6,0.4-57.9,0.2
	c-1.6,0-3.2-1.9-4.7-2.9c1.6-0.9,3.2-2.5,4.9-2.6c9.5-0.3,19-0.2,28.4-0.3L128,250.8z"/>
<path d="M698.4,653.1c-2,0.6-4,1.8-6.1,1.8c-19,0.2-37.9,0.2-56.9,0c-1.8,0-3.7-1.8-5.5-2.8c1.8-1,3.6-3,5.4-3
	c19-0.2,37.9-0.2,56.9,0c2,0,4.1,1.1,6.1,1.6L698.4,653.1z"/>
<path d="M335.4,970.8c-2.2,0.7-4.3,1.9-6.5,1.9c-18.3,0.2-36.6,0.1-54.9,0.1c-1,0-2.2,0.3-2.9-0.1c-1.4-1.1-2.8-2.3-4.1-3.6
	c1.4-0.8,2.9-2.4,4.3-2.4c19.8-0.2,39.6-0.2,59.3,0c1.6,0,3.1,1.3,4.7,2C335.4,969.3,335.4,970,335.4,970.8z"/>
<path d="M960.3,494.5c-0.7,1.2-1.5,2.3-2.5,3.4c-13.7,13.8-27.4,27.5-41.2,41.1c-1,1-3.4,0.8-5.1,1.1c0.3-1.7-0.1-4,0.9-5
	c13.8-14.1,27.8-28.1,41.9-42c1.1-0.9,2.5-1.3,3.9-1.2C958.9,492,959.5,493.5,960.3,494.5z"/>
<path d="M668.2,181.3c9.7,0,19.3-0.1,29,0.1c1.7,0,3.5,1.6,5.2,2.5c-1.7,1.1-3.4,3.2-5,3.3c-19,0.2-38,0.1-56.9,0.1
	c-1,0.1-2,0-2.9-0.3c-1.2-0.9-2.3-1.8-3.3-2.9c1.2-0.8,2.4-2.4,3.7-2.4c8.3-0.2,16.6-0.1,25-0.2h5.5L668.2,181.3z"/>
<polygon points="319.2,127.1 365.2,173 382.1,110.9 "/>
<rect y="46.3" class="st4" width="2052" height="982.2"/>
<polygon class="st5" points="0,1022.2 22.9,999.3 39.5,1015.9 72.9,982.4 99.6,1009.1 158.2,1009.1 196.1,971.1 233.9,1008.9 
	261.8,1008.9 279.5,991.2 292,1003.6 296.8,998.7 316.8,1018.7 483.7,1018.7 513.2,989.2 539.9,1016 560.2,995.7 576.5,1011.9 
	626.6,961.8 681.3,1016.5 691.3,1006.5 706,1021.2 706,1034.6 0,1034.6 "/>
<path class="st6" d="M308.3,992.8c0,0-3.4-28.5,39.2-34.6s38.6-35.9,38.6-35.9"/>
<polygon class="st5" points="706,1022.2 728.9,999.3 745.5,1015.9 778.9,982.4 805.6,1009.1 864.2,1009.1 902.1,971.1 939.9,1008.9 
	967.8,1008.9 985.5,991.2 998,1003.6 1002.8,998.7 1022.8,1018.7 1189.7,1018.7 1219.2,989.2 1245.9,1016 1266.2,995.7 
	1282.5,1011.9 1332.6,961.8 1387.3,1016.5 1397.3,1006.5 1412,1021.2 1412,1034.6 706,1034.6 "/>
<circle class="st1" cx="1512.2" cy="160.3" r="30.5"/>
<circle class="st1" cx="1980.4" cy="713" r="30.5"/>
<circle class="st1" cx="1643" cy="466.7" r="30.5"/>
<circle class="st1" cx="1135.9" cy="682.5" r="30.5"/>
<ellipse transform="matrix(0.3163 -0.9487 0.9487 0.3163 122.0124 2102.4612)" class="st1" cx="1519.6" cy="966.6" rx="30.5" ry="30.5"/>
<rect x="1705.4" y="45" transform="matrix(0.1807 -0.9835 0.9835 0.1807 1348.2806 1765.3928)" class="st2" width="56.8" height="56.8"/>
<rect x="1935.4" y="275.4" class="st2" width="57" height="57"/>
<rect x="1940" y="913.4" transform="matrix(0.9056 -0.4242 0.4242 0.9056 -213.6677 924.0078)" class="st2" width="57" height="57"/>
<rect x="1307" y="655.6" transform="matrix(0.1857 -0.9826 0.9826 0.1857 415.3373 1869.3682)" class="st2" width="57" height="57"/>
<polygon class="st3" points="1225.7,503.5 1294.9,467.9 1230.3,425.9 "/>
<polygon class="st3" points="1537.9,687.4 1498.9,620 1460.1,686.7 "/>
<polygon class="st3" points="1788.4,798 1749.5,730.6 1710.7,797.3 "/>
<polygon class="st3" points="1758.7,489.1 1816.6,541.2 1832.9,465.8 "/>
<polygon class="st3" points="1188.6,830.1 1246.4,882.2 1262.8,806.8 "/>
<rect x="1322.2" y="290.8" transform="matrix(0.6734 -0.7393 0.7393 0.6734 205.1088 1102.8662)" class="st2" width="57" height="57"/>
<path d="M1722.6,15.7c8.2,1.5,16.4,3,24.6,4.5c4.6,0.8,6.1,3.3,5.3,7.8c-3,15.9-5.9,31.8-8.7,47.6c-0.8,4.2-3.2,6-7.4,5.2
	c-16.1-2.9-32.1-5.9-48.1-8.7c-4.1-0.7-5.8-2.8-5.1-6.9c3.1-17,6.2-34.1,9.2-51.1c0.6-3.1,2.6-3.4,5.2-2.9
	C1705.8,12.7,1714.2,14.2,1722.6,15.7z M1713.7,69.2L1713.7,69.2c6.2,1.1,12.4,2.1,18.6,3.4c2.9,0.6,4.4-0.2,5-3.2
	c2.3-12.8,4.6-25.5,7-38.3c0.5-2.8-0.4-4.4-3.4-5c-12.6-2.2-25.2-4.5-37.8-6.8c-3.3-0.6-4.9,0.6-5.5,4c-2.1,12.3-4.3,24.6-6.7,36.8
	c-0.8,3.8,0.8,5.1,4.1,5.7C1701.3,66.9,1707.5,68,1713.7,69.2z"/>
<path d="M1912,280.8c0-8.3,0.1-16.6,0-25c0-3.9,2-5.4,5.5-5.4c16,0,31.9,0,47.9,0c7.9,0,8.3,0.4,8.3,8c0.1,15.6,0.1,31.3,0.2,46.9
	c0,6.1-1.2,7.5-7.2,7.4c-16.1-0.3-32.2-0.8-48.3-1c-4.6-0.1-6.6-1.7-6.4-6.5C1912.2,297.1,1912,288.9,1912,280.8z M1966.4,258.3h-47
	v45.6h47V258.3z"/>
<path d="M1339.3,296.8c6.1,5.6,12.2,11.3,18.5,16.8c2.8,2.5,3.2,4.6,0.5,7.5c-11.3,12.2-22.5,24.6-33.7,36.9c-3,3.3-5.9,3.3-9,0.4
	l-36.2-33c-3-2.7-3.3-5.6-0.5-8.7c11.1-12.2,22.2-24.4,33.3-36.6c2.9-3.2,5.4-3.5,8.7-0.2C1326.8,285.8,1333.1,291.2,1339.3,296.8z
	 M1334.8,302l0.1-0.1c-4.7-4.3-9.4-8.4-14-12.8c-2.7-2.6-4.8-2.9-7.5,0.1c-8.3,9.3-16.7,18.6-25.2,27.7c-2.2,2.4-2.2,4.3,0.1,6.3
	c9.7,8.9,19.4,17.7,29.2,26.5c1.9,1.7,3.6,1.9,5.6-0.2c8.8-9.8,17.7-19.5,26.6-29.1c2-2.1,1.7-3.5-0.4-5.3
	C1344.3,310.8,1339.6,306.4,1334.8,302L1334.8,302z"/>
<path d="M1911,941.5c-3.5-7.4-6.8-14.8-10.4-22.1c-2-4.1-0.8-6.6,3-8.4c14.5-6.8,28.9-13.6,43.4-20.4c5.5-2.6,7.3-1.9,9.8,3.5
	c6.8,14.6,13.5,29.3,20.5,43.9c1.8,3.9,1,6.3-2.8,8c-15,7.1-30,14.3-45.1,21.3c-3.2,1.5-6,1.1-7.7-2.8
	C1918.3,956.8,1914.6,949.2,1911,941.5z M1960.6,918.8l0.1-0.1c-2.8-6-5.7-12-8.4-18.1c-1.2-2.7-2.6-3.5-5.4-2.2
	c-12,5.7-24.1,11.4-36.2,16.9c-2.7,1.3-3.1,2.9-1.8,5.6c5.7,11.9,11.3,23.8,16.7,35.8c1.3,2.8,2.7,3.3,5.4,2
	c11.8-5.4,23.6-10.7,35.5-15.9c3.4-1.5,4.2-3,2.4-6.4C1966,930.7,1963.4,924.7,1960.6,918.8L1960.6,918.8z"/>
<path d="M1293.1,651.7c1.6-8.5,3.3-17,4.8-25.5c0.6-3.5,2.3-4.3,5.6-3.7c16.5,3.2,33,6.3,49.5,9.4c4.3,0.8,5.8,2.8,4.9,7.3
	c-3.2,15.8-6.2,31.7-9,47.6c-0.8,4.8-3.5,6.2-7.6,5.5c-16.2-3-32.4-6-48.5-9.2c-3.7-0.7-5.2-2.9-4.3-6.9c1.7-8.1,3.1-16.3,4.7-24.5
	L1293.1,651.7z M1327.5,633.8c-6.4-1.2-12.8-2.3-19.1-3.7c-3.3-0.7-4.9,0.1-5.6,3.6c-2.3,12.9-4.8,25.9-7.3,38.7
	c-0.6,3,0.5,4.2,3.4,4.8c12.9,2.4,25.8,4.8,38.8,7.4c3.1,0.6,4.7-0.3,5.3-3.5c2.4-12.9,4.8-25.8,7.3-38.7c0.7-3.3-0.7-4.5-3.7-5
	C1340.3,636.3,1333.9,635,1327.5,633.8L1327.5,633.8z"/>
<path d="M1870.6,472.2c2,0.9,4.2,1.2,3.1,5c-5,17.7-9.7,35.5-14.4,53.3c-1.2,4.6-2.4,9.2-3.6,13.8c-1.3,4.9-4.3,5.7-7.9,2.1
	c-6.5-6.6-13-13.4-19.5-20c-8.7-8.7-17.5-17.2-26.1-26c-1.7-1.8-3.4-4.3-3.6-6.6c0-1.1,3.6-2.8,5.8-3.4
	c21.3-5.9,42.7-11.5,64.1-17.3C1869.2,472.8,1869.9,472.5,1870.6,472.2z M1809.4,495.8l41.4,41c4.8-18.1,9.7-36.3,14.5-54.6l-1.6-1
	L1809.4,495.8z"/>
<path d="M1204.5,486.9v-33.5c0-5.9,1.7-6.9,6.6-4l58.7,33.8c4.6,2.6,4.7,5.1,0,7.7c-19.7,11.4-39.5,22.7-59.3,34
	c-4.3,2.5-6.1,1.5-6.1-3.5C1204.3,510,1204.4,498.4,1204.5,486.9L1204.5,486.9z M1211.6,515.8c1.9-0.6,3.7-1.3,5.4-2.1
	c3.8-2.2,7.4-4.7,11.2-6.9c10-5.7,20.2-11.3,30.2-17c3.4-1.9,3.4-3.7,0-5.7c-12.3-7.2-24.6-14.3-36.9-21.3c-3-1.7-6.1-3-9.9-4.8
	L1211.6,515.8z"/>
<path d="M1277.4,68c-1.2,4.5-2.2,8.6-3.3,12.8c-5.1,18.8-10.2,37.6-15.3,56.4c-1.3,4.8-3.2,5.4-6.7,1.9
	c-16.3-16.2-32.5-32.4-48.8-48.7c-3.7-3.7-3.4-5.3,1.6-6.7c14-4,28-7.7,42.1-11.5c8.3-2.3,16.7-4.4,24.9-7
	C1275.2,64.2,1276.4,65.8,1277.4,68z M1268.5,74.9l-1.4-1L1213,88.4l40.8,41.4C1258.7,111.4,1263.6,93.1,1268.5,74.9z"/>
<path d="M1251.7,828.7c-1.9,7.2-3.8,14.9-5.9,22.5c-3.8,14.4-7.8,28.7-11.6,43.1c-1.5,5.7-3.9,6.4-8.2,2.1
	c-15.7-15.7-31.5-31.5-47.2-47.4c-1.2-1.2-2.6-3.6-2.2-4.4c1.1-1.7,2.8-3,4.8-3.5c14.3-4.1,28.6-7.9,43-11.8c7.3-2,14.6-4,22-5.6
	C1251,822.7,1252.1,823.9,1251.7,828.7z M1229.1,886.9c1-3.7,2.3-8.3,3.6-12.9c3.3-12.3,6.7-24.5,9.9-36.8c0.2-1.6,0.3-3.2,0.2-4.8
	c-1.6-0.1-3.1,0-4.7,0.3c-7.9,2-15.9,4.1-23.8,6.3c-8.8,2.4-17.6,4.9-26,7.3L1229.1,886.9z"/>
<path d="M1534.7,282.6l39.7-68.4l2,0.2c2.2,3.5,4.6,7,6.7,10.6c9.5,16.5,19,33,28.5,49.4c0.5,0.9,0.9,1.8,1.4,2.6
	c3,6.2,2.1,7.6-4.7,7.6c-21.8,0-43.6,0.1-65.5-0.1C1540.4,284.6,1538,283.4,1534.7,282.6z M1575.3,225.2l-29.5,51.4
	c0.8,0.4,1.7,0.8,2.5,1c17.6,0.1,35.3,0.1,52.9,0.1c3.3,0,3.4-1.4,1.9-4.1c-7-12.1-13.8-24.4-20.8-36.6
	C1580.3,233.5,1578.1,229.9,1575.3,225.2L1575.3,225.2z"/>
<path d="M1863.3,124.3c0-10.8-0.1-21.7,0-32.5c0-6.8,2.2-8.1,8-4.8c19.6,11.2,39.2,22.5,58.7,33.9c4.3,2.5,4.3,4.8-0.2,7.4
	c-14.1,8.2-28.4,16.1-42.6,24.3c-5.2,3-10.2,6.1-15.5,8.9c-1.8,1-4.8,2.1-6.1,1.4s-2.2-3.9-2.2-6
	C1863.2,146,1863.3,135.1,1863.3,124.3z M1870.3,123.9L1870.3,123.9l-0.1,25.5c0,3.3,1,5,4.4,3c14.3-8.2,28.6-16.5,42.9-24.8
	c4.6-2.7,4.6-3.9,0-6.6c-14-8.1-28.1-16.1-42.2-24.2c-4.1-2.4-5-1.9-5.1,3.1C1870.3,108,1870.3,115.9,1870.3,123.9L1870.3,123.9z"/>
<path d="M1723.4,786.3h-33.5c-5.7,0-6.7-1.6-3.9-6.5c11.4-20.1,22.9-40.1,34.5-60.1c1.6-2.8,4.9-2.7,6.5,0.3
	c9.6,16.8,19.2,33.6,28.8,50.4c1.9,3.3,3.8,6.5,5.6,9.9c2.3,4.1,1.3,6-3.6,6.1c-7.7,0.2-15.3,0-23,0L1723.4,786.3z M1752.5,779.1
	c-0.2-1-0.5-2-0.9-3c-8.3-14.7-16.6-29.3-25-43.9c-2.1-3.6-3.8-3.5-6,0.3c-7.9,13.6-15.8,27.2-23.7,40.8c-0.9,1.6-1.3,3.5-2.1,5.8
	H1752.5z"/>
<path d="M1515.2,668.3c-11.2,0-22.3,0.1-33.5-0.1c-1.8,0-4.7-0.7-5-1.7c-0.5-1.7,0.2-4.1,1.2-5.8c9.7-16.8,19.5-33.5,29.2-50.2
	c1.4-2.4,2.6-5,4-7.4c2.6-4.3,5.6-4.4,8.1,0c6.9,11.7,13.6,23.5,20.3,35.2c4.5,7.8,9.1,15.6,13.4,23.6c0.8,1.4,1.4,3.5,0.9,4.9
	c-0.4,1-2.7,1.6-4.2,1.6C1538.2,668.4,1526.7,668.4,1515.2,668.3L1515.2,668.3z M1545.6,662c-0.1-1.1,0.1-2.4-0.4-3.3
	c-2-3-4.4-5.8-6.3-8.8c-5.5-9.5-10.8-19-16.3-28.5c-2.2-3.8-4.7-7.6-7.4-12l-30.4,52.7L1545.6,662z"/>
<path d="M1597,445.5c-1-16.1,14.8-30.8,30.5-30.6c16.7,0.3,30.9,14.8,30.9,31.2c0,15-14.6,31.3-32,30.6
	C1611.4,476.1,1595.9,462.2,1597,445.5z M1603.7,445.6c0,13.1,10.5,23.7,23.5,24c13.1,0.1,23.9-10.9,24.2-24.6
	c0.2-11.7-11.3-23.1-23.5-23.3C1614.7,421.7,1603.8,432.3,1603.7,445.6C1603.7,445.6,1603.7,445.6,1603.7,445.6L1603.7,445.6
	L1603.7,445.6z"/>
<path d="M1457.8,138.4c-1.4-16.6,15.1-30.8,29.9-30.9c17.7-0.2,32.6,14.4,31.5,32.5c-1.1,17.4-11.1,28.7-31.6,29
	C1471.9,169.2,1456.9,155.2,1457.8,138.4z M1464.5,138.1c-0.4,13.1,9.9,24,22.9,24.4c0,0,0,0,0,0h0.7c14.5,0.3,23.9-13.7,24.1-24.4
	c0.3-12.9-9.2-23.3-23.7-23.9C1475.7,113.7,1463.6,125.2,1464.5,138.1z"/>
<path d="M1962.4,723.2c-18.2-0.4-30.1-16.8-29.3-32.9c0.7-14.4,17.7-30,31.7-28.6c17.4,1.7,31.7,15,29.7,34.8
	C1992.9,712.7,1978.6,724.6,1962.4,723.2z M1963.9,716.6c13.2,0.5,24-11,24-23.8c0-11.3-9-23.8-23.8-23.8c-13.5,0-23.2,9.3-24,23
	C1939.3,705.7,1950,716.3,1963.9,716.6L1963.9,716.6z"/>
<path d="M1505.6,981.7c-17.5-0.1-29.8-13-30.3-30.7c-0.4-15.9,14.2-31,30.2-30.6c18.1,0.4,30.3,13.6,31.3,30.7
	C1537.6,966,1522.2,983.3,1505.6,981.7z M1505.2,975c13.9,1.8,23.9-12.8,24.7-24.7c0.8-11.2-11-23-22.8-23.3
	c-13.6-0.3-24.3,9.4-25,21.2C1481.1,964.2,1490.5,974.6,1505.2,975L1505.2,975z"/>
<path d="M1114.9,692.5c-16.4-0.9-30.8-13-30.9-31.4c0-16.6,13.9-30.3,31.6-30.5c14.2-0.2,31.2,15.6,30.5,29.3
	C1145,678.9,1133.4,690.8,1114.9,692.5z M1091,659.9c-1.2,13.7,8.3,24.5,22.8,25.9c11,1,24.4-11.2,25-23.8
	c0.5-11.3-6.4-23.3-22.7-24.6C1105.6,636.5,1091.7,643.6,1091,659.9z"/>
<path d="M1687.2,558.8c-7.3,0.2-10.9,5.1-14.1,10.8c-1.9,3.4-4.2,6.7-6.7,9.8c-1.9,2.4-11.8,1.3-14.4-1.8c-3-3.7-5.6-7.7-7.8-12
	c-2.2-4.2-5.5-6.3-9.8-6.3c-4.5,0-7.6,2.6-9.6,6.8c-1.5,2.9-3.2,5.8-5,8.5c-4.7,7.6-14.5,8-19.9,0.7c-2.7-3.7-4.8-8-7.8-11.5
	c-1.8-2.1-4.9-3.1-7.4-4.7c-1.3-0.8-2.4-1.9-3.7-2.9c1.8-1.1,4.2-3.6,5.2-3.1c4.3,2,8.2,4.6,11.8,7.7c2.4,2.3,3.7,5.8,5.4,8.8
	c3,5.3,8.9,5.4,12.1,0.1c1.8-3,3.4-6.1,5.2-9c6.5-10.2,19.1-10.7,26.6-1.1c2.1,2.9,4,6,5.7,9.2c3.6,6.3,9.1,6.4,12.9,0.3
	c2.4-3.9,4.8-8,7.9-11.2c2.3-2.3,5.6-3.9,8.8-5C1686.1,551.7,1687.8,554.1,1687.2,558.8z"/>
<path d="M1793,404.5c0.1-4.4,2.5-5.5,5.9-5.7c5.7-0.3,10.6,1.9,15.2,5.1c1,0.7,1.8,1.5,2.7,2.2c2.8,2.1,6.1,5,9.3,2.4
	c2.3-1.9,3.5-5.6,4.4-8.7c1.3-4,1.5-8.5,2.9-12.4c3.8-10.3,15-11.8,23.9-5.8c2.7,1.8,5.3,3.8,8,5.6c5.1,3.5,10.2,1.2,10.9-5.1
	c0.4-3.6-0.1-7.5,1.2-10.8c1.9-4.1,4.4-7.9,7.4-11.3c0.7-0.8,3.6,0.4,5.5,0.6c-0.7,1.5-1.4,3.1-2.2,4.6c-1.7,3.1-3.9,6-5,9.3
	c-1.1,3.3-0.9,7.1-1.3,10.7c-1,8-7.2,12.1-14.8,9.2c-3.9-1.5-7.5-4.1-11-6.5c-7.2-5-13.8-4.8-17.5,2c-1.9,3.5-1.6,8.3-2.2,12.5
	c-0.7,5.3-1.8,10.1-7.4,12.5c-5.6,2.4-9.9,0.5-14.3-2.7c-5.5-3.9-10.6-9.5-18.6-6.3c-0.3,0.1-1-0.2-1.4-0.4S1793.7,404.9,1793,404.5
	z"/>
<path d="M1434.7,381.1c1.1-8.1,6.3-11.8,11.5-15.4c2.4-1.7,5.3-2.9,7.5-4.8c3.8-3.5,3.4-6.7-0.9-9.7s-8.7-5.3-12.6-8.6
	c-8.8-7.4-6.2-20.5,4.1-26.1c2.9-1.6,5.9-3.1,8.7-4.8c3.9-2.4,4.6-6.5,1-9.4c-3.8-3.1-8.3-5.4-12.3-8.3s-6.7-6.6-6.5-11.7
	c0.1-1.4,1.7-2.8,2.6-4.1c1.3,0.9,3.6,1.8,3.6,2.7c-0.1,9.3,8.2,10.5,13.7,13.9c7.7,4.7,11.7,14.3,1.3,21.4c-4,2.8-8.2,5.4-11.9,8.5
	c-3.6,3.3-3.9,8.8-0.7,12.5c0,0,0,0,0,0l0.2,0.3c2.6,2.5,5.9,4.3,8.7,6.5c2.9,2.2,5.7,4.1,7.9,6.7c4.2,5.2,1.7,12.8-5.3,17.1
	c-2.5,1.6-5.1,3.1-7.7,4.4c-3.6,1.6-5.3,3.9-5.8,7.9c-0.2,1.7-2.8,3.1-4.3,4.6L1434.7,381.1z"/>
<path d="M1158.9,336.8c-8.1-0.9-11.4-6.1-15-11c-2.7-3.6-5.9-6.8-8.9-10.1c-3,3.3-6.4,6.3-8.9,9.9c-4.3,5.9-8.3,11.4-16.8,11.4
	c-7,0-11-4-14.5-9c-1.8-2.5-2.9-5.7-4.8-8.1c-1.4-1.7-3.7-3.6-5.7-3.6c-2,0-4.1,2-5.3,3.7c-2.1,2.9-3.6,6.3-5.4,9.5
	c-2.8,4.9-9,8.3-14.1,7.5c-1.1-0.2-2.8-1.2-2.8-1.9c0-1.2,1-3.5,1.6-3.5c10.1-0.6,12-9.6,16-16c4-6.2,11.5-8.3,16.8-3.1
	c3.1,3,5.5,7,8,10.6c2.9,4.3,5.8,8.7,11.7,7.2c3-0.9,5.8-2.6,7.8-5c3-3.5,4.8-7.9,7.5-11.6c5-6.7,14.5-5.7,19.2,1.7
	c2,3.2,3.5,6.8,5.9,9.7c1.8,2.1,4.6,3.3,6.9,5c1.7,1.2,3.2,2.6,4.9,3.9L1158.9,336.8z"/>
<path d="M1592.8,122.2c-4.4-3.3-4.7-8.6-0.7-12.5c3.4-3.3,7.5-5.9,11.3-8.8c1.4-1.1,3.1-1.9,4.4-3.2c3.4-3.1,2.9-7.6-1.1-9.9
	c-3-1.7-6.1-3.2-9.1-5c-5.7-3.3-9-8.8-8.8-14.8c0.2-5.8,2.8-11.6,9.2-14.3c2.8-1.2,5.3-3.3,8.1-4.8c4.6-2.6,5.4-6.9,1.2-10.4
	c-4.4-3.7-9.5-6.5-13.7-10.4c-2.2-2-3.4-5.4-4.4-8.4c-0.4-1.1,1.2-2.9,1.9-4.4c1.3,0.7,3.5,1.3,3.6,2.2c1.1,8.1,7.8,10.4,13.6,13.8
	c3.7,2.2,7.1,4.6,7.9,9.5c0.7,4.3-1.2,9.8-4.9,12.1c-2.8,1.8-5.6,3.6-8.5,5.1c-4.5,2.3-7.3,5.7-7.2,10.9c0.1,5,3.7,7.5,7.4,9.8
	c2.2,1.4,4.5,2.7,6.8,4c9.1,5.4,9.5,16.1-1.5,22.5c-1,0.6-2,1.1-3.1,1.7c-4.5,2.4-9.1,4.8-9.9,10.8
	C1595.3,119.1,1593.9,120.4,1592.8,122.2z"/>
<path d="M1880.3,727.9c0.7,7.1-6.2,9.1-11.2,12.6c-3,2.1-6.5,4.2-8.3,7.2c-3.2,5.4-1.2,9.8,4.4,13.1c3.8,2.3,7.5,4.8,11.2,7.3
	c5.8,3.8,5.4,13.9-1,18.4c-2.4,1.7-4.9,3.3-7.5,4.8c-4.4,2.4-7.7,5.6-8.9,10.7c-0.3,1.3-2.2,2.3-3.3,3.4c-0.9-1.5-2.6-3-2.4-4.3
	c0.4-5.4,3.4-10.3,8-13.1c3-1.8,6-3.4,9-5.2c4.4-2.5,5.1-7.3,1-10.5c-3.2-2.6-7-4.3-10.3-6.8c-13.4-10.2-9.1-22.9,3.8-30
	c2.5-1.2,4.8-2.7,7-4.5c3.5-3.2,2.7-7.9-1.5-10.3c-3.2-1.8-6.4-3.4-9.5-5.3c-4.8-2.8-6.8-7.6-7.7-12.8c-0.2-1.2,1.6-2.9,2.8-4
	c0.2-0.2,2.7,1,2.8,1.7c0.9,7.8,6.7,11,12.8,13.9C1876.8,716.9,1880.4,720.6,1880.3,727.9z"/>
<path d="M1338,737.5c1,1.7,2.5,3.2,2.9,4.8c1.1,4.9,4.5,7.3,8.4,9.8c4,2.4,7.6,5.3,10.8,8.7c3.4,3.8,1.5,12.1-2.9,15
	c-3.2,2.1-6.6,3.8-9.9,5.7c-4.1,2.3-6.5,5.6-6.4,10.4c0,4.5,2.5,7.3,6.3,9.3c2.3,1.2,4.5,2.8,6.9,4c11.7,6.2,9.4,17.3-0.3,23.2
	c-1.3,0.8-2.6,1.4-3.9,2.1c-4.3,2.3-8,5-9,10.4c-0.2,1.4-2.5,2.4-3.9,3.5c-0.7-1.7-2.1-3.3-2.1-5c0-6.1,4.7-9.3,8.8-12.5
	c2.3-1.8,5.1-3,7.6-4.7c6-4.1,5.9-8.3-0.4-12.1c-3.1-1.9-6.3-3.7-9.4-5.6c-9.5-5.8-9.6-20.1-0.2-26.4c3.2-2.1,6.7-3.6,9.7-5.9
	c1.9-1.5,4.4-4,4.3-5.9c-0.2-2.2-2.6-4.7-4.6-6.3c-4.1-3.3-9-5.7-12.7-9.3C1333.4,746.7,1333.6,741.6,1338,737.5z"/>
<path d="M1801.1,976.1c-2.2-1.7-5.8-3.9-8.6-6.8c-2-2.1-3.3-5-4.6-7.7c-2-4.2-4.7-6.9-9.9-6.9c-5.4,0-8,3.3-10.5,7.2
	c-1.6,2.5-3.1,5.1-4.6,7.6c-5.3,8.8-15.6,7.5-20.3,0.3c-1.8-2.8-3-6-5.2-8.3c-2.5-2.6-5.8-4.5-8.7-6.7c-1.4-1.1-2.8-2.3-4.2-3.5
	c1.7-1,3.5-2.7,5.2-2.7c6.2-0.1,9.7,4.3,12.8,8.9c1.8,2.6,2.9,5.6,4.5,8.3c2.8,4.9,8.2,5,11.2,0.2c2.2-3.5,4.2-7.1,6.2-10.7
	c4.9-8.6,20.4-10.1,26.4-0.2c1.6,2.7,2.9,5.6,4.9,8s4.5,5.8,7.2,6.1c2,0.2,4.8-3.3,6.8-5.6c3.2-3.8,5.6-8.2,9-11.7
	c1.9-1.9,5.2-2.6,8-3.2c1.2-0.2,2.7,1.2,4,1.9c-1,1.4-1.8,3.9-2.9,4c-7.9,0.6-9.7,7.2-12.8,12.5
	C1812.3,971.7,1808.9,975.4,1801.1,976.1z"/>
<path d="M1412.4,455.8c18.1,1.5,29.4,10.5,32.8,26.2c0.3,1.3,0.6,2.8,0.1,3.9c-0.7,1.5-2.1,2.6-3.2,4c-1.2-1.4-3.4-2.7-3.4-4.1
	c-0.4-13.1-8.3-19.5-19.8-22.7c-8.5-2.4-21.8,3.6-25.4,12.9c-1.2,3-1.4,6.4-2.6,9.4c-0.7,1.8-2.3,3.2-3.5,4.8
	c-1.2-1.6-3.4-3.4-3.3-4.9c0.7-9.8,5-18.1,13.3-23.4C1402.4,458.6,1408.7,457.2,1412.4,455.8z"/>
<path d="M1427.6,76.7c-2.4,0.6-4.9,1.9-7.2,1.5c-15.4-2.4-26.8-14-27.3-29.5c-0.5-12.4,7.2-24.2,19.4-29.2c3-1.3,6.3-2,9.6-2.1
	c1.7,0,3.5,2.2,5.2,3.4c-1.6,1.1-3.4,3.3-5,3.2c-12.5-0.6-24,13.4-22.8,25.7c1.1,10.8,10.8,21.5,21.9,22.1c2.1,0.1,4.1,1.4,6.1,2.2
	L1427.6,76.7z"/>
<path d="M1634.8,879.7c16-0.9,29.7,13.7,30.6,28.5c0.1,1.5-1.6,4.1-2.9,4.4c-2.8,0.7-3.9-1.4-4-4.2c-0.3-10.4-5.5-17.5-15.3-21
	c-13-4.5-27.4,0.9-31.7,14.8c-0.6,1.8,0,4.1-0.8,5.8c-0.9,1.8-2.8,3.2-4.2,4.8c-0.8-1.5-2.5-3-2.4-4.5
	C1604.3,894,1616.6,879.2,1634.8,879.7z"/>
<path d="M1795.8,307.7c-4.5,6.4-9.4,3.7-13.1,2.6c-12.2-3.6-18.8-12.6-21.8-24.7c-2.3-9.2,4.6-24.4,12.2-28.7
	c4.9-2.7,10.5-4.5,16-6.1c1.5-0.5,3.7,1.1,5.6,1.8c-1.4,1.3-2.6,3.3-4.3,3.8c-6.1,1.7-12.2,2.9-16.7,8c-6.1,7-8,15-5.5,23.6
	c2.8,9.2,9,15.3,19.1,16.6C1790.1,305.1,1792.5,306.5,1795.8,307.7z"/>
<path d="M1102.1,429.7c-0.1-0.8-0.1-1.6,0-2.5c0.7-1.2,1.6-2.4,2.5-3.5c1.1,1,2.7,1.8,3.1,3c1.9,4.9,3,10.1,5.4,14.7
	c3.1,6.3,15.7,11.3,22.6,9.5c15.2-4,18.1-9.9,21.2-23.1c0.4-1.6,2.2-3,3.3-4.4c1,1.8,2.9,3.7,2.7,5.4c-2.3,17.2-13.9,28.4-31.4,28.6
	C1117.1,457.7,1102,443.4,1102.1,429.7z"/>
<path d="M1097.6,924.7c0.4-14.8,10.7-28.8,26-31c1.1-0.2,2.4-1.2,3.3-0.9c1.7,0.6,3.1,1.9,4.6,2.9c-1,1.1-1.9,2.7-3.2,3.3
	c-4.3,1.8-8.9,3.2-13.3,4.9c-9.6,3.9-14.3,21.3-7.6,32.1c4.8,7.7,11.8,10.5,19.9,12.3c1.5,0.3,2.8,2,4.2,3c-1.8,1-3.7,3-5.4,2.9
	c-7.3-0.5-14.2-3.7-19.3-9C1101.4,939.7,1098.1,932.4,1097.6,924.7z"/>
<path d="M2034,212.7c-1.7-1.3-3.3-2.4-4.8-3.6c-2.9-2.2-5.7-6.2-8.6-6.2c-2.5,0-5,4.5-7.5,7c-0.5,0.5-0.8,1.3-1.3,1.4
	c-1.6,0.5-3.3,0.8-5,1.2c0.1-1.8-0.3-4.1,0.5-5.4c1.6-2.4,4.5-4.1,6-6.6c0.9-1.9,0.9-4-0.1-5.9c-1.8-2.7-4.7-4.7-6.8-7.3
	c-0.9-1.2-0.9-3.1-1.3-4.8c1.7,0.2,3.8-0.2,5.1,0.6c2.7,1.7,5.1,3.8,7.2,6.1c2.3,2.7,4.2,2,6.2-0.1c2.2-2.3,4.1-4.9,6.5-6.8
	c1.1-0.8,3.3-0.1,5.1-0.1c-0.2,1.5,0.2,3.4-0.6,4.4c-2.1,2.4-4.3,4.6-6.7,6.7c-2.2,2.2-2.2,4.3,0.1,6.4c2.6,2.5,5.3,5.1,7.7,7.8
	c0.6,0.9,0.9,2,0.7,3.1C2036.2,211.5,2035,211.9,2034,212.7z"/>
<path d="M1398.5,588.9c2.4-2.1,5.4-4.3,8-6.8c3.2-3.3,2.9-5.8-0.5-8.7c-1.8-1.5-3.5-3.1-5.1-4.7c-3.9-3.7-3.8-4,1.8-7.6l7.4,8.3
	c2.5,2.7,4.9,3.1,7.5,0.1c1.9-2.3,4.1-4.4,6.4-6.2c1.2-1,3-1.1,4.6-1.6c0,2,0.7,4.3-0.1,5.8c-1.3,2.3-3.5,4-5.4,5.8
	c-2.7,2.5-3.1,4.9,0.1,7.5c2.2,1.7,4.2,3.7,6,6c0.9,1.3,0.8,3.4,1.2,5.2c-1.9-0.2-4.3,0.2-5.7-0.8c-2.5-1.8-4.6-4.3-6.8-6.6
	s-3.9-2.2-5.9,0c-1.9,2.2-4,4.9-6.2,7.1C1402.3,594.9,1401.1,594.6,1398.5,588.9z"/>
<path d="M1253.3,237.3c-7.8-0.2-14-6.7-13.8-14.5c0,0,0,0,0,0c0-0.1,0-0.3,0-0.4c0.2-6.4,7.9-13.7,14.3-13.4
	c7.3,0.3,14.2,7.9,13.9,15.4C1267.4,231.1,1260.2,237.6,1253.3,237.3z M1253.6,230.1c3.6-0.1,6.5-3,6.7-6.6
	c-0.1-3.4-3.5-6.8-6.9-6.4c-3.7,0.4-6.1,2.6-6.4,6.4C1246.7,226.8,1250.1,230.1,1253.6,230.1L1253.6,230.1z"/>
<path d="M1618.7,757.5c6.6-0.2,14.3,7.1,14.6,13.8c0.2,6.5-7.6,14.8-14.2,15s-14.4-7.8-14.5-14.6
	C1604.5,764.7,1611.4,757.7,1618.7,757.5z M1619.3,765.3c-4.4,0.2-7.1,3.1-6.8,6.9s2.9,5.9,6.6,6c3.4,0,6.2-2.8,6.2-6.2c0,0,0,0,0,0
	c0-0.3,0-0.5,0-0.8C1624.8,767.3,1622.5,765.4,1619.3,765.3z"/>
<path d="M1695.2,349.1c-0.3-2.7-1.2-4.8-0.4-5.8c2.3-3.3,4.8-6.3,7.6-9.1c1.9-2,2.1-3.5-0.3-5.2c-2.5-1.7-4.8-3.6-6.8-5.8
	c-1.1-1.3-2-4.1-1.3-5.2c1.7-2.7,3.9-1.3,5.7,0.7c1,1.1,2.1,2.1,3.2,3.2c6,5.8,6,5.8,11.6,0c1.6-1.9,3.4-3.6,5.3-5.3
	c0.9-0.7,2.5-0.5,3.7-0.7c0.1,1.4,0.7,3.2,0.1,4.1c-2,2.9-4.4,5.4-6.6,8c-1.9,2.2-3,4.2,0.2,6.5c2.6,1.8,4.8,4.1,6.6,6.7
	c0.8,1.1,0,3.4,0,5.1c-1.5-0.3-3.3-0.1-4.5-0.9c-1.9-1.3-3.4-3.2-5-4.8c-4.4-4.3-4.9-4.4-9.2-0.2c-1.9,1.9-3.7,3.8-5.7,5.6
	C1698.5,346.8,1697.6,347.4,1695.2,349.1z"/>
<path d="M1142,578.7c-6.9,1.1-13.8-7.5-13.4-14.2c0.5-7.2,6.8-14.1,13.6-13.9c6.8,0.2,14.5,7.6,14.6,13.9
	C1157,572.1,1150,578.7,1142,578.7z M1143.2,571.5c3.2-0.2,5.3-2.5,5.7-6.2c0.4-3.4-3-6.9-6.5-6.7c-3.8,0.2-6.2,2.4-6.5,6.3
	C1135.6,568.3,1138.9,571.5,1143.2,571.5L1143.2,571.5z"/>
<path d="M1088.6,789.7c-0.8-1.1-1.7-2.1-2.6-3c-2.3-2-5-3.5-6.8-5.8c-1-1.3-0.7-3.8-1-5.7c1.7,0.3,3.8,0.1,5.1,1
	c3.3,2.4,6.3,7.4,9.4,7.4s6.1-4.9,9.1-7.6c0.6-0.5,1.1-1.5,1.8-1.6c1.4-0.2,2.8-0.3,4.2-0.2c0,1.6,0.8,3.7,0,4.7
	c-2.3,2.8-4.9,5.5-7.6,7.9c-1.8,1.8-2,3.1,0.1,4.9c2.7,2.2,5.2,4.7,7.4,7.4c1,1.2,0.5,3.5,0.7,5.3c-1.7-0.3-3.9,0-5.1-0.9
	c-2.5-2-4.7-4.2-6.8-6.6c-2.3-2.4-4.3-2.1-6.3,0.2s-3.5,5-5.8,6.8c-1.4,1.1-4,0.7-6,0.9c0.5-1.7,0.6-3.7,1.6-5
	c1.8-2.4,4.2-4.3,6.2-6.5C1087.2,792.1,1087.9,791,1088.6,789.7z"/>
<path d="M1850.2,231.8c-8.2-0.1-13.8-5.9-13.8-14.4c0.1-7.2,6.5-14,13.7-13.6c6.5,0.3,14.4,5.5,14.3,15
	C1864.4,225.6,1857.4,231.9,1850.2,231.8z M1850.4,224.7c3.5-0.1,6.8-3.4,6.4-6.8c-0.1-3.5-3-6.3-6.5-6.3c-3.3-0.3-6.8,3.3-6.7,6.6
	C1843.8,221.8,1846.8,224.7,1850.4,224.7L1850.4,224.7z"/>
<path d="M2003.8,591c7.6,0,13.8,6.2,13.8,13.9c0,0,0,0,0,0c0,0.2,0,0.3,0,0.5c-0.3,8.5-7.3,13.3-14.3,13.6
	c-7.7,0.3-14.1-7.1-13.8-15.1C1989.6,597.1,1996.5,591,2003.8,591z M2010.2,604.5c-0.3-3.6-3.4-6.4-7-6.3c-3.9,0.3-5.9,2.8-6.2,6.5
	c-0.3,3.3,3.4,6.7,6.7,6.6S2010.3,607.7,2010.2,604.5L2010.2,604.5z"/>
<path d="M1533.3,487c-7.4,0.2-13.6-5.8-13.7-13.2c0,0,0,0,0,0c0-0.2,0-0.5,0-0.7c0-7.5,6.6-14.2,13.9-14.1
	c7.8,0.3,14.1,6.6,14.1,14.5C1547.5,480.8,1540.9,487,1533.3,487z M1533.6,479.8c3.4-0.1,6.8-3.6,6.4-6.9c-0.5-3.7-2.8-6-6.6-6.3
	c-3.3-0.2-6.7,3.4-6.7,6.7C1527,477,1530,479.8,1533.6,479.8z"/>
<path d="M1800.9,876.8l8.7-7.7c2.8-2.4,2.6-4.7-0.1-7.1c-2.4-2.1-4.6-4.3-6.6-6.8c-0.9-1.1-0.7-3-1-4.6c1.7,0.1,3.6-0.2,4.9,0.5
	c2.2,1.2,4.1,2.8,5.7,4.8c3.3,3.8,6,3.3,9-0.4c1.5-2,3.3-3.8,5.3-5.3c1-0.8,2.8-0.6,4.2-0.9c0.2,1.8,1.2,4.1,0.4,5.2
	c-2,2.6-4.4,5-6.9,7.1c-2.5,2.2-2.2,4.2,0,6.3c2.4,2,4.7,4.2,6.8,6.6c1,1.3,1,3.4,1.5,5.2c-1.7-0.4-3.6-0.4-4.9-1.3
	c-2.3-1.6-4.5-3.4-6.5-5.4c-3.2-3.1-5.7-2.5-8.2,1c-1.2,1.6-2.5,3.1-3.8,4.6C1806,882.5,1804.7,882.3,1800.9,876.8z"/>
<path d="M1080.8,165.3c-2.9,3.6-5.6,7.2-8.7,10.3c-1,1-3.2,0.6-4.9,0.8c0.3-1.6,0.1-3.4,0.8-4.6c1.3-1.9,2.9-3.7,4.5-5.3
	c4.6-5.2,4.6-5.5-0.5-10.5c-1.9-1.6-3.6-3.4-5.2-5.3c-0.6-0.7-0.6-2.9-0.1-3.3c0.9-0.7,2.9-1,3.7-0.5c3.2,2.1,6.1,4.5,8.8,7.2
	c2.3,2.5,3.8,1.9,5.6-0.2c2-2.4,4.3-4.6,6.7-6.7c1.1-0.9,3-0.6,4.6-0.9c-0.2,1.5,0,3.2-0.7,4.3c-1.6,2.5-3.5,4.8-5.6,7
	c-2.4,2.7-2.1,4.9,0.5,7.3c2,1.7,3.9,3.6,5.6,5.7c0.9,1.2,1.1,3,1.6,4.4c-1.9,0-4.3,0.8-5.6-0.1
	C1088.4,172.7,1085.5,169.6,1080.8,165.3z"/>
<path d="M1842.3,625.9c3.3,3,6.2,5.7,9.2,8.3c2.7,2.4,3.2,4.5-0.9,7.4c-2.9-2.6-6.1-5.1-8.9-8c-2.7-2.7-5-2.9-7.5,0
	c-1.9,2.3-4,4.4-6.3,6.4c-1.1,0.9-3,0.8-4.6,1.1c0.3-1.6,0.1-3.6,1-4.8c2.1-3,4.4-5.8,6.9-8.5c1.7-1.9,1.7-3.4-0.3-5
	c-2.6-2.1-5-4.3-7.3-6.8c-0.9-1-0.6-3-0.9-4.5c1.6,0.1,3.6-0.3,4.6,0.5c10.4,8.5,10.3,8.5,20.3-0.8c1-0.9,2.9-0.7,4.4-1
	c-0.1,1.7,0.5,3.9-0.4,5.1C1849.2,618.7,1846.1,621.7,1842.3,625.9z"/>
<path d="M1949.7,29.4c-9.2,0-18.3,0.2-27.4-0.2c-2.1-0.1-4.1-2.3-6.2-3.5c2-1.1,3.9-3.2,5.9-3.2c18.6-0.2,37.2-0.2,55.8-0.1
	c1.2-0.1,2.3,0,3.4,0.5c1.1,0.6,2.5,1.8,2.5,2.8c-0.2,1.3-1.1,2.4-2.3,3c-2.4,0.5-4.9,0.7-7.4,0.6
	C1966,29.5,1957.8,29.4,1949.7,29.4z"/>
<path d="M1400.2,185.2c-1.8,2-3.3,3.9-5,5.6c-7,7.1-7.9,5.6,0.2,13.6c1.3,1,2.5,2.2,3.5,3.5c0.7,1,0.7,2.4,0.9,3.7
	c-1.6,0-3.6,0.7-4.7-0.1c-2.6-1.8-5-3.9-7.2-6.1c-3-2.8-5.6-2.1-8.1,0.7c-1.6,1.9-2.8,4.4-4.7,5.7c-1.3,1-4.2,1.4-5.5,0.6
	c-2.8-1.7-0.3-3.3,1-4.6c9-9.6,8.9-9.5,0-19c-1.2-1.3-1.3-3.6-1.9-5.4c2.1,0.3,4.4,0.1,6.1,1.1c3.3,1.9,6.5,6.5,9.4,6.3
	c3.1-0.2,5.9-4.8,9-7.2c1.2-1,2.6-1.6,4.2-1.7C1398.3,181.9,1399.1,183.7,1400.2,185.2z"/>
<path d="M1147.1,22.1c0.9,0.8,2.2,1.5,2.2,2c-0.2,1.8-0.3,4.1-1.4,5.3c-3.9,4.3-8.2,8.3-12.3,12.5c-9.6,9.5-19.1,19-28.6,28.6
	c-1.9,2-4.1,3.8-6.1,1.2c-0.7-0.9,0.4-4.3,1.7-5.6c13.8-14,27.8-27.8,41.7-41.6C1145.2,23.5,1146.1,22.8,1147.1,22.1z"/>
<path d="M1466.3,834.4c-1.1-0.8-2.8-1.5-2.7-2c0.1-1.5,0.7-3,1.7-4.2c8.5-8.7,17.1-17.2,25.7-25.8c5.3-5.3,10.5-10.7,16-15.7
	c1.2-1,3.6-0.7,5.5-1c-0.3,1.8,0,4.1-1,5.2c-13.6,13.9-27.4,27.6-41.3,41.3C1469,833,1467.7,833.8,1466.3,834.4z"/>
<path d="M1164.8,232.4c9.7-0.1,19.3-0.3,28.9,0c1.9,0,3.7,1.7,5.6,2.6c-1.8,1.1-3.5,3.1-5.2,3.1c-19.3,0.3-38.6,0.4-57.9,0.2
	c-1.6,0-3.2-1.9-4.7-2.9c1.6-0.9,3.2-2.5,4.9-2.6c9.5-0.3,19-0.2,28.4-0.3V232.4z"/>
<path d="M1735.3,634.8c-2,0.6-4,1.8-6.1,1.8c-19,0.2-37.9,0.2-56.9,0c-1.8,0-3.7-1.8-5.5-2.8c1.8-1,3.6-3,5.4-3
	c19-0.2,37.9-0.2,56.9,0c2,0,4.1,1.1,6.1,1.6L1735.3,634.8z"/>
<path d="M1372.2,952.4c-2.2,0.7-4.3,1.9-6.5,1.9c-18.3,0.2-36.6,0.1-54.8,0.1c-1,0-2.2,0.3-2.9-0.1c-1.4-1.1-2.8-2.3-4.1-3.6
	c1.4-0.8,2.9-2.4,4.3-2.4c19.8-0.2,39.6-0.2,59.3,0c1.6,0,3.1,1.3,4.7,2C1372.2,951,1372.2,951.7,1372.2,952.4z"/>
<path d="M1997.1,476.2c-0.7,1.2-1.5,2.3-2.4,3.4c-13.7,13.8-27.4,27.5-41.2,41.1c-1.1,1-3.4,0.8-5.1,1.1c0.3-1.7-0.1-4,0.9-5
	c13.8-14.1,27.8-28.1,41.9-42c1.1-0.9,2.5-1.3,3.9-1.2C1995.7,473.7,1996.3,475.2,1997.1,476.2z"/>
<path d="M1705.1,163c9.7,0,19.3-0.1,29,0.1c1.7,0,3.5,1.6,5.2,2.5c-1.7,1.1-3.4,3.2-5,3.3c-19,0.2-38,0.1-56.9,0.1
	c-1,0.1-2,0-2.9-0.3c-1.2-0.9-2.3-1.8-3.3-2.9c1.2-0.8,2.4-2.4,3.7-2.4c8.3-0.2,16.6-0.1,25-0.2h5.5L1705.1,163z"/>
<polygon points="1356.1,108.8 1402,154.7 1418.9,92.6 "/>
<polygon class="st5" points="1031.1,1024.1 1053.9,1001.3 1070.5,1017.8 1104,984.4 1130.6,1011 1189.2,1011 1227.2,973.1 
	1265,1010.9 1292.9,1010.9 1310.6,993.1 1323,1005.5 1327.9,1000.6 1347.8,1020.6 1514.8,1020.6 1544.2,991.1 1571,1017.9 
	1591.3,997.6 1607.6,1013.9 1657.7,963.7 1712.4,1018.4 1722.4,1008.4 1737.1,1023.1 1737.1,1036.5 1031.1,1036.5 "/>
<path class="st6" d="M1345.1,974.5c0,0-3.3-28.5,39.2-34.6c42.6-6.1,38.6-35.9,38.6-35.9"/>
</svg>
