<svg id="Layer_1" data-name="Layer 1" xmlns="http://www.w3.org/2000/svg" viewBox="0 0 1115.15 327.64"><defs><style>.cls-1{fill:#ff4459;}.cls-2{fill:#72f9d1;}.cls-3{fill:#ff81d0;}.cls-4{fill:#ffff5e;}.cls-5{opacity:0.28;}</style></defs><title>back_nav2</title><rect class="cls-1" y="1.9" width="1115.15" height="325.73"/><path class="cls-2" d="M1580.72,684a30.5,30.5,0,1,1,30.5-30.5,30.5,30.5,0,0,1-30.5,30.5" transform="translate(-549.64 -356.36)"/><circle class="cls-2" cx="693.62" cy="50.76" r="30.5"/><circle class="cls-2" cx="186.54" cy="266.61" r="30.5"/><rect class="cls-3" x="907.22" y="596.02" width="57.05" height="57.05" transform="translate(-417.36 -519.29) rotate(10.7)"/><polyline class="cls-4" points="280.92 9.94 276.37 87.59 345.59 51.98 280.92 9.94"/><polygon class="cls-4" points="588.54 271.47 549.57 204.08 510.75 270.75 588.54 271.47"/><polyline class="cls-4" points="835.1 321.13 796.13 253.74 757.32 320.41"/><polygon class="cls-4" points="809.37 73.16 867.2 125.28 883.6 49.91 809.37 73.16"/><path d="M893.39,592.14c1.6-8.5,3.31-17,4.76-25.5.6-3.47,2.27-4.33,5.55-3.69q24.75,4.78,49.53,9.37c4.26.79,5.78,2.85,4.87,7.35-3.19,15.81-6.22,31.66-9,47.56-.84,4.8-3.47,6.24-7.64,5.48q-24.3-4.44-48.54-9.17c-3.71-.71-5.18-2.94-4.33-6.92,1.73-8.13,3.14-16.33,4.69-24.5Zm34.44-17.92c-6.38-1.2-12.78-2.29-19.11-3.66-3.29-.72-4.94.1-5.56,3.56q-3.49,19.41-7.29,38.74c-.58,3,.48,4.24,3.37,4.77Q918.64,621.17,938,625c3.1.61,4.73-.35,5.32-3.47,2.4-12.91,4.79-25.83,7.35-38.71.67-3.35-.68-4.47-3.69-5C940.56,576.72,934.2,575.43,927.83,574.22Z" transform="translate(-549.64 -356.36)"/><path d="M1470.91,412.63c2,.91,4.18,1.18,3.09,5-5,17.71-9.68,35.53-14.44,53.32-1.23,4.58-2.37,9.18-3.57,13.76-1.27,4.87-4.29,5.71-7.91,2.06-6.55-6.62-12.95-13.4-19.52-20-8.68-8.71-17.53-17.24-26.12-26-1.74-1.78-3.45-4.34-3.56-6.62-.05-1.08,3.56-2.84,5.75-3.44,21.33-5.86,42.71-11.54,64.07-17.28C1469.33,413.27,1469.94,413,1470.91,412.63Zm-61.24,23.65,41.36,41c4.8-18.06,9.67-36.35,14.54-54.63l-1.59-1Z" transform="translate(-549.64 -356.36)"/><path d="M804.76,427.39c0-11.16,0-22.32,0-33.48,0-5.92,1.66-6.85,6.64-4l58.72,33.79c4.61,2.65,4.66,5.07,0,7.73q-29.62,17.06-59.34,34c-4.29,2.45-6.09,1.45-6.14-3.54-.12-11.49,0-23,0-34.49Zm7.16,28.89a41.13,41.13,0,0,0,5.43-2.13c3.8-2.22,7.42-4.75,11.24-6.92,10-5.71,20.15-11.27,30.19-17,3.39-1.93,3.39-3.72,0-5.7q-18.43-10.72-36.95-21.29c-3-1.68-6.12-3-9.9-4.76Z" transform="translate(-549.64 -356.36)"/><path d="M1282.3,659.24q17.09-30.11,34.41-60.09c1.63-2.84,4.87-2.67,6.54.25q14.45,25.17,28.84,50.36" transform="translate(-549.64 -356.36)"/><path d="M1347.85,655.62c-8.31-14.66-16.6-29.33-25-43.94-2.07-3.59-3.82-3.45-6,.31q-11.89,20.37-23.68,40.81" transform="translate(-549.64 -356.36)"/><polyline class="cls-4" points="134.7 165.47 95.73 98.08 56.92 164.75"/><path d="M581.9,503.58q17.08-30.1,34.41-60.09c1.63-2.84,4.86-2.67,6.54.25q14.43,25.15,28.84,50.36" transform="translate(-549.64 -356.36)"/><path d="M647.44,500Q635,478,622.44,456c-2.06-3.59-3.82-3.45-6,.31q-11.89,20.37-23.68,40.81" transform="translate(-549.64 -356.36)"/><path d="M1115.5,608.78c-11.16,0-22.32.07-33.48-.08-1.76,0-4.7-.71-5-1.71-.5-1.7.23-4.14,1.2-5.83,9.65-16.78,19.46-33.46,29.19-50.19,1.42-2.44,2.6-5,4-7.42,2.62-4.35,5.56-4.42,8.13,0,6.85,11.69,13.55,23.45,20.3,35.19,4.51,7.84,9.06,15.64,13.43,23.56.78,1.41,1.37,3.53.86,4.86-.38,1-2.73,1.59-4.21,1.61-11.49.12-23,.07-34.48.07Zm30.4-6.3c-.11-1.08.13-2.44-.42-3.29-2-3-4.43-5.75-6.25-8.85-5.55-9.45-10.85-19.05-16.32-28.55-2.22-3.84-4.65-7.56-7.41-12l-30.44,52.7Z" transform="translate(-549.64 -356.36)"/><path d="M1227.79,365.31c16.69.24,30.87,14.83,30.92,31.2,0,14.95-14.57,31.28-32,30.59-15-.59-30.51-14.49-29.46-31.19-1-16.13,14.8-30.84,30.54-30.6" transform="translate(-549.64 -356.36)"/><path d="M1228.22,374.6a23.93,23.93,0,0,0-.73,47.85c13.14.09,23.94-10.88,24.19-24.57.21-11.7-11.31-23.13-23.46-23.28" transform="translate(-549.64 -356.36)"/><path d="M1562.68,663.69c-18.17-.37-30.13-16.81-29.3-32.94.74-14.43,17.7-30,31.74-28.58,17.43,1.74,31.73,15,29.68,34.79A29.8,29.8,0,0,1,1562.68,663.69Zm1.51-6.65c13.18.5,24-11,24-23.84,0-11.33-9-23.76-23.75-23.76-13.52,0-23.16,9.3-24,23S1550.29,656.74,1564.19,657Z" transform="translate(-549.64 -356.36)"/><path d="M715.21,632.93c-16.41-.88-30.83-13-30.87-31.43,0-16.63,13.85-30.26,31.55-30.51,14.16-.2,31.24,15.59,30.47,29.29C745.28,619.36,733.67,631.26,715.21,632.93Zm-23.88-32.62c-1.17,13.73,8.32,24.5,22.8,25.88,11,1,24.42-11.18,25-23.78.51-11.31-6.42-23.27-22.73-24.63C705.92,576.91,692,584,691.33,600.31Z" transform="translate(-549.64 -356.36)"/><path d="M1287.5,499.22c-7.27.16-10.91,5.11-14.13,10.83a70.53,70.53,0,0,1-6.66,9.78c-1.92,2.37-11.82,1.34-14.36-1.77a67.63,67.63,0,0,1-7.8-12c-2.17-4.23-5.46-6.3-9.85-6.31-4.55,0-7.61,2.63-9.6,6.75-1.44,3-3.27,5.74-5,8.55-4.68,7.56-14.55,8-19.86.68-2.72-3.73-4.76-8-7.76-11.46-1.82-2.1-4.92-3.07-7.37-4.66-1.3-.85-2.45-1.93-3.67-2.91,1.78-1.11,4.21-3.58,5.21-3.1a48.34,48.34,0,0,1,11.76,7.7c2.44,2.26,3.7,5.81,5.44,8.82,3.05,5.28,8.94,5.37,12.12.13,1.8-3,3.37-6.07,5.23-9,6.49-10.2,19.07-10.67,26.58-1.14a73.41,73.41,0,0,1,5.66,9.24c3.6,6.3,9.09,6.39,12.89.3,2.44-3.88,4.76-8,7.9-11.22,2.26-2.35,5.64-3.88,8.79-5C1286.42,492.19,1288.18,494.59,1287.5,499.22Z" transform="translate(-549.64 -356.36)"/><path d="M1465.12,675.94a36.79,36.79,0,0,0,7.05-4.47c3.55-3.22,2.7-7.93-1.51-10.25-3.18-1.75-6.4-3.42-9.53-5.26-4.84-2.85-6.83-7.63-7.72-12.78-.2-1.2,1.58-2.89,2.77-4,.23-.23,2.74,1,2.83,1.71.89,7.82,6.68,11,12.76,13.9,5.35,2.56,9,6.24,8.8,13.62.66,7.13-6.18,9.07-11.2,12.64" transform="translate(-549.64 -356.36)"/><path d="M1012.66,396.21c18.09,1.51,29.36,10.48,32.76,26.22.27,1.28.57,2.84.09,3.92-.67,1.49-2.07,2.65-3.16,3.95-1.19-1.38-3.37-2.73-3.42-4.14-.4-13.12-8.32-19.5-19.83-22.73-8.53-2.39-21.75,3.65-25.42,12.91-1.19,3-1.43,6.35-2.58,9.37-.68,1.79-2.29,3.22-3.48,4.82-1.15-1.64-3.37-3.35-3.26-4.89.7-9.78,5-18.1,13.25-23.35C1002.71,399,1009,397.64,1012.66,396.21Z" transform="translate(-549.64 -356.36)"/><path d="M763.12,369.18c-2.3,17.24-13.89,28.36-31.44,28.65-14.27.25-29.37-14-29.32-27.75" transform="translate(-549.64 -356.36)"/><path d="M708,367.15c1.94,4.85,3.05,10.07,5.37,14.71,3.13,6.29,15.72,11.25,22.57,9.45,15.21-4,18.1-9.93,21.15-23.08" transform="translate(-549.64 -356.36)"/><path d="M998.77,529.38c2.44-2.07,5.39-4.27,8-6.85,3.23-3.25,2.92-5.75-.52-8.7-1.76-1.51-3.47-3.1-5.15-4.7-3.87-3.68-3.82-4,1.82-7.6l7.43,8.28c2.47,2.74,4.86,3.12,7.51.11a47.82,47.82,0,0,1,6.41-6.24c1.2-.95,3-1.06,4.61-1.56,0,2,.68,4.3-.14,5.79-1.25,2.25-3.5,3.95-5.42,5.79-2.66,2.55-3.11,4.87.07,7.46a32.39,32.39,0,0,1,5.95,6c1,1.32.81,3.41,1.16,5.16-1.94-.23-4.31.16-5.73-.82-2.55-1.76-4.61-4.29-6.75-6.6s-3.94-2.21-5.88,0-4,4.86-6.22,7.11C1002.64,535.35,1001.42,535,998.77,529.38Z" transform="translate(-549.64 -356.36)"/><path d="M742.25,519.14c-6.9,1.07-13.79-7.49-13.36-14.16.47-7.23,6.76-14.11,13.6-13.91S757,498.68,757.09,505C757.25,512.52,750.26,519.18,742.25,519.14Zm1.28-7.16c3.17-.2,5.3-2.5,5.71-6.23.38-3.42-3-6.93-6.54-6.74-3.84.2-6.17,2.39-6.5,6.26C735.9,508.78,739.15,512,743.53,512Z" transform="translate(-549.64 -356.36)"/><path d="M1604.06,531.49a13.84,13.84,0,0,1,13.78,14.35c-.33,8.47-7.25,13.29-14.29,13.6-7.74.34-14.08-7.06-13.83-15.09C1589.92,537.57,1596.79,531.41,1604.06,531.49Zm6.39,13.42a6.77,6.77,0,0,0-7-6.25c-3.87.35-5.92,2.81-6.22,6.49-.27,3.27,3.42,6.7,6.71,6.62S1610.6,548.19,1610.45,544.91Z" transform="translate(-549.64 -356.36)"/><path d="M1133.58,427.4a13.47,13.47,0,0,1-13.73-13.92c0-7.54,6.57-14.18,13.91-14.06a14.6,14.6,0,0,1,14.13,14.48C1147.79,421.24,1141.21,427.44,1133.58,427.4Zm.31-7.13c3.43-.1,6.83-3.57,6.37-6.88-.51-3.67-2.8-6-6.57-6.26-3.32-.23-6.71,3.36-6.65,6.69A7,7,0,0,0,1133.89,420.27Z" transform="translate(-549.64 -356.36)"/><path d="M1442.6,566.35c3.3,3,6.21,5.7,9.23,8.29,2.74,2.36,3.15,4.55-.86,7.4-2.89-2.57-6-5.12-8.91-8-2.68-2.69-5-2.89-7.55,0a50.21,50.21,0,0,1-6.34,6.37c-1.13.89-3,.79-4.6,1.13.3-1.64.12-3.59,1-4.85a78.9,78.9,0,0,1,6.93-8.48c1.71-1.9,1.67-3.39-.25-5a68.07,68.07,0,0,1-7.31-6.77c-.88-1-.64-3-.91-4.55,1.57.14,3.63-.31,4.64.52,10.43,8.51,10.34,8.52,20.34-.83,1-.89,2.91-.69,4.4-1-.09,1.72.46,3.92-.39,5.07C1449.46,559.12,1446.38,562.15,1442.6,566.35Z" transform="translate(-549.64 -356.36)"/><path d="M1335.57,575.26c-2,.64-4,1.82-6.08,1.83-19,.15-37.91.18-56.86,0-1.84,0-3.66-1.85-5.49-2.84,1.8-1,3.6-3,5.41-3,19-.2,37.91-.15,56.86,0,2,0,4.07,1.06,6.1,1.62Z" transform="translate(-549.64 -356.36)"/><path d="M1597.4,416.64a27,27,0,0,1-2.45,3.41c-13.69,13.75-27.38,27.52-41.23,41.11-1,1-3.36.75-5.08,1.08.26-1.71-.11-4,.87-5q20.74-21.15,41.88-41.95a5.41,5.41,0,0,1,3.86-1.2C1596,414.1,1596.6,415.62,1597.4,416.64Z" transform="translate(-549.64 -356.36)"/><rect class="cls-5" width="1115.15" height="325.73"/></svg>