<svg id="Layer_1" data-name="Layer 1" xmlns="http://www.w3.org/2000/svg" viewBox="0 0 1028.95 1028.95"><defs><style>.cls-1{fill:#f9f9f9;}.cls-2{fill:#72f9d1;}.cls-3{fill:#ff81d0;}.cls-4{fill:#ffff5e;}</style></defs><title>background</title><rect class="cls-1" width="1028.95" height="1028.95"/><circle class="cls-2" cx="475.38" cy="178.64" r="30.5"/><circle class="cls-2" cx="943.58" cy="731.36" r="30.5"/><circle class="cls-2" cx="606.12" cy="485.01" r="30.5"/><circle class="cls-2" cx="99.05" cy="700.86" r="30.5"/><circle class="cls-2" cx="482.71" cy="984.86" r="30.5"/><rect class="cls-3" x="732.45" y="85.31" width="57.05" height="57.05" transform="matrix(0.98, 0.18, -0.18, 0.98, -28.36, -156.8)"/><rect class="cls-3" x="898.51" y="293.73" width="57.05" height="57.05"/><rect class="cls-3" x="964.29" y="953.89" width="57.05" height="57.05" transform="translate(-384.1 491.75) rotate(-25.1)"/><rect class="cls-3" x="331.22" y="696.02" width="57.05" height="57.05" transform="translate(79.69 -76.32) rotate(10.7)"/><polygon class="cls-4" points="188.87 521.84 258.09 486.23 193.42 444.19 188.87 521.84"/><polygon class="cls-4" points="501.04 705.71 462.07 638.33 423.25 704.99 501.04 705.71"/><polygon class="cls-4" points="751.6 816.34 712.63 748.95 673.82 815.61 751.6 816.34"/><polygon class="cls-4" points="721.87 507.41 779.7 559.52 796.1 484.15 721.87 507.41"/><polygon class="cls-4" points="151.76 848.39 209.58 900.51 225.98 825.14 151.76 848.39"/><rect class="cls-3" x="346.52" y="331.25" width="57.05" height="57.05" transform="translate(-204.62 372.61) rotate(-47.67)"/><path d="M746.87,56.18c8.19,1.49,16.36,3,24.57,4.45,4.58.79,6.11,3.31,5.28,7.79q-4.44,23.81-8.7,47.64c-.77,4.22-3.15,6-7.41,5.22-16.05-2.93-32.08-5.9-48.14-8.74-4.08-.73-5.84-2.82-5.1-6.92Q712,80.08,716.6,54.53c.56-3.1,2.6-3.42,5.23-2.93C730.17,53.16,738.52,54.66,746.87,56.18ZM738,109.62v-.07c6.2,1.13,12.42,2.17,18.59,3.44,2.88.59,4.45-.22,5-3.16q3.46-19.14,7-38.27c.5-2.77-.38-4.43-3.36-5q-18.91-3.34-37.81-6.85c-3.31-.62-4.88.62-5.46,4-2.12,12.29-4.3,24.58-6.74,36.81-.77,3.85.8,5.14,4.14,5.71C725.58,107.3,731.79,108.48,738,109.62Z" transform="translate(-61.14 -22.12)"/><path d="M936.25,321.2c0-8.32.07-16.65,0-25-.05-3.88,1.95-5.43,5.49-5.43q23.94,0,47.88.05c7.91,0,8.27.4,8.29,8q.07,23.46.17,46.92c0,6.08-1.23,7.47-7.18,7.36-16.11-.29-32.22-.77-48.33-1-4.61-.06-6.56-1.69-6.37-6.53C936.48,337.52,936.25,329.36,936.25,321.2Zm54.4-22.44h-47v45.61h47Z" transform="translate(-61.14 -22.12)"/><path d="M363.57,337.26c6.15,5.61,12.24,11.29,18.5,16.78,2.84,2.5,3.17,4.62.51,7.51-11.3,12.24-22.48,24.57-33.67,36.9-3,3.25-5.9,3.25-9.05.37q-18.09-16.5-36.2-33c-3-2.74-3.26-5.64-.5-8.67q16.62-18.3,33.28-36.58c2.88-3.18,5.39-3.52,8.72-.22C351.08,326.23,357.41,331.66,363.57,337.26Zm-4.48,5.2.11-.13c-4.67-4.25-9.43-8.43-14-12.8-2.69-2.58-4.85-2.88-7.51.11q-12.46,14-25.22,27.67c-2.22,2.38-2.18,4.26.1,6.33q14.58,13.29,29.17,26.55c1.87,1.7,3.62,1.93,5.56-.22q13.2-14.64,26.61-29.11c1.95-2.11,1.68-3.52-.41-5.33C368.62,351.28,363.89,346.83,359.09,342.46Z" transform="translate(-61.14 -22.12)"/><path d="M935.26,981.93c-3.46-7.39-6.8-14.84-10.43-22.14-2-4.11-.81-6.59,3-8.39,14.48-6.78,28.94-13.61,43.43-20.36,5.49-2.56,7.26-1.91,9.76,3.45,6.83,14.64,13.53,29.34,20.46,43.93,1.85,3.88,1,6.25-2.75,8-15,7.09-30,14.29-45.06,21.34-3.24,1.52-6,1.14-7.69-2.75C942.59,997.26,938.87,989.62,935.26,981.93Zm49.66-22.68.13-.07c-2.83-6-5.74-12-8.44-18.11-1.18-2.67-2.58-3.49-5.38-2.16q-18,8.58-36.21,16.94c-2.72,1.26-3.09,2.9-1.82,5.57q8.52,17.82,16.74,35.76c1.27,2.78,2.68,3.25,5.4,2q17.68-8.11,35.51-15.91c3.36-1.45,4.15-3,2.4-6.41C990.25,971.1,987.67,965.13,984.92,959.25Z" transform="translate(-61.14 -22.12)"/><path d="M317.39,692.14c1.6-8.5,3.31-17,4.76-25.5.6-3.47,2.27-4.33,5.55-3.69q24.75,4.78,49.53,9.37c4.26.79,5.78,2.85,4.87,7.35-3.19,15.81-6.22,31.66-9,47.56-.84,4.8-3.47,6.24-7.64,5.48q-24.3-4.44-48.54-9.17c-3.71-.71-5.18-2.94-4.33-6.92,1.73-8.13,3.14-16.33,4.69-24.5Zm34.44-17.92c-6.38-1.2-12.78-2.29-19.11-3.66-3.29-.72-4.94.1-5.56,3.56q-3.5,19.41-7.29,38.74c-.58,3,.48,4.24,3.37,4.77Q342.64,721.17,362,725c3.1.61,4.73-.35,5.32-3.47,2.4-12.91,4.79-25.83,7.35-38.71.67-3.35-.68-4.47-3.69-5C364.56,676.72,358.2,675.43,351.83,674.22Z" transform="translate(-61.14 -22.12)"/><path d="M894.91,512.63c2,.91,4.18,1.18,3.09,5-5,17.71-9.68,35.53-14.44,53.32-1.23,4.58-2.37,9.18-3.57,13.76-1.27,4.87-4.29,5.71-7.91,2.06-6.55-6.62-13-13.4-19.52-20-8.68-8.71-17.53-17.24-26.12-26-1.74-1.78-3.45-4.34-3.56-6.62,0-1.08,3.56-2.84,5.75-3.44,21.33-5.86,42.71-11.54,64.07-17.28C893.33,513.27,893.94,513,894.91,512.63Zm-61.24,23.65,41.36,41c4.8-18.06,9.67-36.35,14.54-54.63l-1.59-1Z" transform="translate(-61.14 -22.12)"/><path d="M228.76,527.39c0-11.16,0-22.32,0-33.48,0-5.92,1.66-6.85,6.64-4l58.72,33.79c4.61,2.65,4.66,5.07,0,7.73q-29.62,17.05-59.34,34c-4.29,2.45-6.09,1.45-6.14-3.54-.12-11.49,0-23,0-34.49Zm7.16,28.89a41.13,41.13,0,0,0,5.43-2.13c3.8-2.22,7.42-4.75,11.24-6.92,10-5.71,20.15-11.27,30.19-17,3.39-1.93,3.39-3.72,0-5.7q-18.43-10.73-36.95-21.29c-2.95-1.68-6.12-3-9.9-4.76Z" transform="translate(-61.14 -22.12)"/><path d="M301.67,108.41c-1.15,4.47-2.17,8.63-3.28,12.78q-7.61,28.22-15.26,56.43c-1.3,4.81-3.19,5.4-6.69,1.92q-24.42-24.3-48.76-48.71c-3.68-3.69-3.43-5.27,1.56-6.7,14-4,28-7.67,42.05-11.49,8.31-2.27,16.65-4.4,24.86-7C299.53,104.64,300.7,106.22,301.67,108.41Zm-8.88,6.9-1.44-1-54.08,14.58,40.8,41.4C283,151.86,287.9,133.59,292.79,115.31Z" transform="translate(-61.14 -22.12)"/><path d="M276,869.14c-1.89,7.24-3.83,14.9-5.88,22.53-3.85,14.36-7.8,28.7-11.64,43.06-1.52,5.66-3.91,6.38-8.18,2.11q-23.62-23.61-47.13-47.37c-1.15-1.16-2.64-3.59-2.18-4.4a8.53,8.53,0,0,1,4.76-3.52c14.29-4.06,28.64-7.92,43-11.78,7.32-2,14.64-4,22-5.61C275.28,863.17,276.35,864.35,276,869.14Zm-22.6,58.22c1-3.67,2.32-8.26,3.56-12.86,3.32-12.25,6.66-24.49,9.88-36.76a22,22,0,0,0,.2-4.75,24.74,24.74,0,0,0-4.66.27q-11.91,3-23.75,6.27c-8.83,2.41-17.63,4.92-26,7.25Z" transform="translate(-61.14 -22.12)"/><path d="M559,323l39.68-68.42,2.05.21c2.22,3.53,4.56,7,6.65,10.61q14.29,24.67,28.47,49.42c.49.86.92,1.75,1.36,2.64,3,6.19,2.13,7.64-4.7,7.64-21.82,0-43.64.06-65.46-.07C564.67,325,562.32,323.86,559,323Zm40.6-57.31-29.49,51.38a12.69,12.69,0,0,0,2.54,1q26.45.11,52.9.14c3.32,0,3.43-1.39,1.86-4.09-7-12.14-13.85-24.4-20.79-36.6C604.54,273.86,602.34,270.32,599.58,265.67Z" transform="translate(-61.14 -22.12)"/><path d="M887.55,164.75c0-10.83-.06-21.65,0-32.48,0-6.83,2.21-8.13,8-4.79q29.4,16.86,58.72,33.87c4.27,2.47,4.29,4.79-.18,7.36C940,176.87,925.68,184.86,911.46,193c-5.17,3-10.23,6.12-15.49,8.9-1.85,1-4.78,2.14-6.1,1.35s-2.18-3.88-2.22-6C887.44,186.4,887.55,175.57,887.55,164.75Zm7.06-.37h-.07c0,8.49,0,17,0,25.46,0,3.25,1,5,4.44,3q21.49-12.37,42.93-24.82c4.62-2.69,4.57-3.92,0-6.56q-21.06-12.09-42.15-24.15c-4.14-2.37-5.05-1.86-5.1,3.07C894.56,148.4,894.61,156.39,894.61,164.38Z" transform="translate(-61.14 -22.12)"/><path d="M747.68,826.74c-11.16,0-22.33,0-33.5,0-5.67,0-6.68-1.59-3.88-6.53q17.09-30.11,34.41-60.09c1.63-2.84,4.87-2.67,6.54.25q14.44,25.17,28.84,50.36c1.88,3.29,3.83,6.55,5.64,9.88,2.26,4.14,1.25,6-3.55,6.1-7.67.15-15.33,0-23,0Zm29.09-7.16a18.7,18.7,0,0,0-.93-3q-12.45-22-25-43.94c-2.06-3.59-3.82-3.45-6,.31q-11.9,20.37-23.68,40.81c-.92,1.6-1.3,3.5-2.13,5.82Z" transform="translate(-61.14 -22.12)"/><path d="M539.5,708.78c-11.16,0-22.32.07-33.48-.08-1.76,0-4.7-.71-5-1.71-.5-1.7.23-4.14,1.2-5.83,9.65-16.78,19.46-33.46,29.19-50.19,1.42-2.44,2.6-5,4.05-7.42,2.62-4.35,5.56-4.42,8.13,0,6.85,11.69,13.55,23.45,20.3,35.19,4.51,7.84,9.06,15.64,13.43,23.56.78,1.41,1.37,3.53.86,4.86-.38,1-2.73,1.59-4.21,1.61-11.49.12-23,.07-34.48.07Zm30.4-6.3c-.11-1.08.13-2.44-.42-3.29-2-3-4.43-5.75-6.25-8.85-5.55-9.45-10.85-19.05-16.32-28.55-2.22-3.84-4.65-7.56-7.41-12l-30.44,52.7Z" transform="translate(-61.14 -22.12)"/><path d="M621.25,485.9c-1-16.12,14.8-30.83,30.54-30.6,16.69.25,30.87,14.84,30.92,31.21,0,14.95-14.57,31.28-32,30.59C635.66,516.5,620.2,502.61,621.25,485.9Zm6.71.16a24,24,0,0,0,23.53,24c13.14.1,23.94-10.87,24.19-24.56.21-11.7-11.31-23.14-23.46-23.28A24,24,0,0,0,628,486.06Z" transform="translate(-61.14 -22.12)"/><path d="M482.14,178.82c-1.4-16.59,15.11-30.77,29.89-30.89,17.69-.15,32.6,14.41,31.45,32.52-1.1,17.36-11.13,28.7-31.64,29C496.19,209.62,481.23,195.63,482.14,178.82Zm6.62-.27a23.66,23.66,0,0,0,23.61,24.38c14.53.29,23.89-13.67,24.14-24.42.3-12.86-9.21-23.34-23.67-23.88C500,154.14,487.91,165.66,488.76,178.55Z" transform="translate(-61.14 -22.12)"/><path d="M986.68,763.69c-18.17-.37-30.13-16.81-29.3-32.94.74-14.43,17.7-30,31.74-28.58,17.43,1.74,31.73,15,29.68,34.79A29.8,29.8,0,0,1,986.68,763.69Zm1.51-6.65c13.18.5,24-11,24-23.84,0-11.33-9-23.76-23.75-23.76-13.52,0-23.16,9.3-24,23S974.29,756.74,988.19,757Z" transform="translate(-61.14 -22.12)"/><path d="M529.89,1022.15c-17.53-.06-29.78-13-30.25-30.74-.41-15.88,14.24-31,30.24-30.62,18.09.44,30.34,13.6,31.25,30.65C561.93,1006.45,546.46,1023.72,529.89,1022.15Zm-.39-6.64c13.93,1.8,23.86-12.85,24.72-24.71.82-11.24-11-23-22.84-23.29-13.58-.35-24.3,9.36-25,21.21C505.42,1004.61,514.78,1015,529.5,1015.51Z" transform="translate(-61.14 -22.12)"/><path d="M139.21,732.93c-16.41-.88-30.83-13-30.87-31.43,0-16.63,13.85-30.26,31.55-30.51,14.16-.2,31.24,15.59,30.47,29.29C169.28,719.36,157.67,731.26,139.21,732.93Zm-23.88-32.62c-1.17,13.73,8.32,24.5,22.8,25.88,11,1,24.42-11.18,25-23.78.51-11.31-6.42-23.27-22.73-24.63C129.92,676.91,116,684,115.33,700.31Z" transform="translate(-61.14 -22.12)"/><path d="M711.5,599.22c-7.27.16-10.91,5.11-14.13,10.83a70.53,70.53,0,0,1-6.66,9.78c-1.92,2.37-11.82,1.34-14.36-1.77a67.63,67.63,0,0,1-7.8-12c-2.17-4.23-5.46-6.3-9.85-6.31-4.55,0-7.61,2.63-9.6,6.75-1.44,3-3.27,5.74-5,8.55-4.68,7.56-14.55,8-19.86.68-2.72-3.73-4.76-8-7.76-11.46-1.82-2.1-4.92-3.07-7.37-4.66-1.3-.85-2.45-1.93-3.67-2.91,1.78-1.11,4.21-3.58,5.21-3.1a48.34,48.34,0,0,1,11.76,7.7c2.44,2.26,3.7,5.81,5.44,8.82,3,5.28,8.94,5.37,12.12.13,1.8-3,3.37-6.07,5.23-9,6.49-10.2,19.07-10.67,26.58-1.14a73.41,73.41,0,0,1,5.66,9.24c3.6,6.3,9.09,6.39,12.89.3,2.44-3.88,4.76-8,7.9-11.22,2.26-2.35,5.64-3.88,8.79-5C710.42,592.19,712.18,594.59,711.5,599.22Z" transform="translate(-61.14 -22.12)"/><path d="M817.27,444.93c.09-4.38,2.54-5.55,5.9-5.72,5.72-.28,10.64,1.88,15.2,5.08,1,.67,1.8,1.48,2.73,2.17,2.82,2.06,6.08,5,9.28,2.4,2.33-1.88,3.46-5.57,4.45-8.67,1.3-4,1.47-8.46,2.94-12.42,3.79-10.25,15.05-11.81,23.94-5.78,2.7,1.84,5.34,3.78,8,5.65,5.12,3.55,10.22,1.19,10.93-5.07.4-3.61-.07-7.55,1.24-10.78a43.88,43.88,0,0,1,7.39-11.3c.66-.79,3.61.35,5.5.61-.72,1.55-1.38,3.14-2.19,4.65-1.67,3.11-3.94,6-5,9.3s-.9,7.15-1.35,10.74c-1,8-7.18,12.1-14.82,9.16-3.92-1.5-7.5-4.08-11-6.52-7.19-5-13.82-4.77-17.48,2-1.91,3.51-1.63,8.25-2.16,12.45-.67,5.27-1.81,10.14-7.37,12.51s-9.87.45-14.32-2.73c-5.5-3.93-10.6-9.51-18.6-6.28-.35.14-.95-.24-1.4-.44S818,445.32,817.27,444.93Z" transform="translate(-61.14 -22.12)"/><path d="M459,421.55c1.12-8.07,6.27-11.76,11.46-15.37,2.43-1.69,5.3-2.85,7.46-4.82,3.85-3.51,3.4-6.72-.94-9.71s-8.73-5.34-12.62-8.58c-8.84-7.35-6.15-20.5,4.08-26.09,2.91-1.59,5.88-3.08,8.71-4.78,3.91-2.36,4.58-6.49,1.05-9.4-3.78-3.13-8.27-5.39-12.25-8.29s-6.74-6.6-6.49-11.68c.06-1.41,1.66-2.75,2.56-4.12,1.26.9,3.63,1.81,3.62,2.7-.11,9.33,8.23,10.54,13.71,13.89,7.65,4.68,11.73,14.3,1.29,21.42-4,2.75-8.17,5.42-11.92,8.54a8.83,8.83,0,0,0-.44,12.72c2.59,2.49,5.86,4.27,8.72,6.51s5.71,4.11,7.86,6.74c4.21,5.17,1.69,12.82-5.3,17.14a61,61,0,0,1-7.74,4.38c-3.6,1.56-5.32,3.91-5.84,7.89-.22,1.71-2.77,3.11-4.26,4.65Z" transform="translate(-61.14 -22.12)"/><path d="M183.21,377.26c-8.13-.9-11.37-6.14-15.05-11-2.69-3.57-5.9-6.75-8.88-10.11-3,3.27-6.37,6.29-8.94,9.88-4.24,5.92-8.22,11.44-16.72,11.39-7,0-11-4.05-14.53-9-1.83-2.53-2.87-5.67-4.84-8.06-1.4-1.71-3.74-3.61-5.69-3.64-1.8,0-4.09,2-5.35,3.69-2.14,2.9-3.61,6.29-5.4,9.46-2.8,4.91-9,8.33-14.07,7.54-1.07-.17-2.8-1.23-2.81-1.92,0-1.21,1-3.46,1.64-3.5,10.08-.64,12-9.62,16.05-16,3.95-6.16,11.47-8.25,16.79-3.1,3.14,3,5.48,7,8,10.62,2.86,4.26,5.83,8.67,11.71,7.24a16,16,0,0,0,7.83-5c2.95-3.49,4.77-7.91,7.51-11.59,5-6.69,14.54-5.69,19.18,1.74,2,3.22,3.51,6.83,5.89,9.72,1.75,2.11,4.6,3.28,6.89,5,1.68,1.22,3.24,2.6,4.85,3.91Z" transform="translate(-61.14 -22.12)"/><path d="M617.16,162.62c-4.43-3.32-4.72-8.64-.67-12.48,3.45-3.27,7.48-5.94,11.28-8.84,1.45-1.1,3.12-1.94,4.44-3.16,3.38-3.11,2.89-7.61-1.07-9.94-3-1.74-6.09-3.23-9.06-5-5.65-3.29-9-8.75-8.76-14.78.23-5.85,2.83-11.57,9.24-14.31,2.85-1.22,5.33-3.3,8.07-4.84,4.63-2.62,5.37-6.93,1.21-10.43-4.39-3.69-9.55-6.49-13.75-10.35-2.21-2-3.44-5.41-4.42-8.41-.37-1.13,1.21-2.9,1.91-4.38,1.25.74,3.49,1.33,3.61,2.22,1.12,8.11,7.82,10.4,13.62,13.78,3.71,2.17,7.13,4.64,7.88,9.52.67,4.34-1.24,9.79-4.87,12.06-2.8,1.76-5.59,3.56-8.52,5.09-4.46,2.34-7.27,5.66-7.18,10.91.09,5,3.67,7.51,7.41,9.82,2.24,1.38,4.51,2.7,6.76,4.05,9.13,5.43,9.49,16.09-1.49,22.46-1,.59-2,1.13-3.06,1.68-4.54,2.43-9.08,4.76-9.91,10.76C619.63,159.55,618.23,160.86,617.16,162.62Z" transform="translate(-61.14 -22.12)"/><path d="M904.57,768.39c.66,7.13-6.18,9.07-11.2,12.64-3,2.14-6.51,4.23-8.29,7.23-3.18,5.4-1.18,9.79,4.38,13.08,3.84,2.27,7.49,4.85,11.21,7.3,5.77,3.8,5.39,13.92-1,18.44a82.38,82.38,0,0,1-7.51,4.81c-4.39,2.44-7.67,5.57-8.88,10.72-.3,1.31-2.15,2.25-3.29,3.36-.86-1.46-2.57-3-2.43-4.35a16.68,16.68,0,0,1,8-13.11c3-1.8,6-3.44,9-5.17,4.43-2.54,5.07-7.29,1-10.54-3.19-2.57-7-4.32-10.3-6.81-13.36-10.22-9.08-22.93,3.75-30a36.79,36.79,0,0,0,7-4.47c3.55-3.22,2.7-7.93-1.51-10.25-3.18-1.75-6.4-3.42-9.53-5.26-4.84-2.85-6.83-7.63-7.72-12.78-.2-1.2,1.58-2.89,2.77-4,.23-.23,2.74,1,2.83,1.71.89,7.82,6.68,11,12.76,13.9C901.12,757.33,904.72,761,904.57,768.39Z" transform="translate(-61.14 -22.12)"/><path d="M362.32,777.93c1.05,1.7,2.52,3.16,2.89,4.85,1.08,4.87,4.53,7.33,8.37,9.84a53,53,0,0,1,10.78,8.65c3.4,3.83,1.5,12.06-2.92,15-3.17,2.08-6.56,3.82-9.86,5.69-4.06,2.3-6.48,5.56-6.44,10.43,0,4.53,2.45,7.34,6.25,9.35,2.34,1.24,4.52,2.77,6.86,4,11.71,6.21,9.44,17.33-.31,23.19-1.27.77-2.62,1.43-3.93,2.13-4.32,2.3-8,5-9,10.38-.24,1.36-2.52,2.36-3.86,3.52-.74-1.66-2.11-3.32-2.1-5,0-6.08,4.65-9.26,8.85-12.49,2.35-1.8,5.13-3,7.59-4.69,6-4.08,5.85-8.29-.41-12.14-3.1-1.9-6.26-3.7-9.36-5.6-9.51-5.84-9.64-20.12-.18-26.37,3.15-2.08,6.69-3.61,9.66-5.91,1.92-1.49,4.45-4,4.32-5.88-.16-2.21-2.57-4.65-4.58-6.27-4.08-3.3-9-5.68-12.74-9.25C357.73,787.14,357.92,782,362.32,777.93Z" transform="translate(-61.14 -22.12)"/><path d="M825.43,1016.54c-2.17-1.66-5.75-3.88-8.62-6.79-2-2.06-3.29-5-4.57-7.67-2-4.23-4.67-6.92-9.86-6.93-5.4,0-8,3.28-10.47,7.16-1.59,2.51-3.06,5.08-4.61,7.62-5.35,8.79-15.62,7.52-20.31.31-1.8-2.76-3-6-5.22-8.34-2.48-2.63-5.79-4.46-8.7-6.69-1.45-1.1-2.83-2.3-4.24-3.46,1.74-1,3.47-2.71,5.22-2.73,6.19-.09,9.73,4.33,12.84,8.88,1.77,2.59,2.93,5.57,4.5,8.3,2.81,4.9,8.23,5,11.18.18,2.16-3.52,4.19-7.12,6.23-10.71,4.9-8.6,20.44-10.07,26.42-.24,1.62,2.68,2.95,5.6,4.93,8s4.54,5.76,7.15,6.06c2,.24,4.85-3.27,6.8-5.57,3.19-3.76,5.58-8.24,9-11.69,1.88-1.88,5.19-2.57,8-3.16,1.15-.24,2.65,1.2,4,1.87-1,1.4-1.82,3.94-2.89,4-7.88.64-9.69,7.22-12.81,12.48C836.61,1012.13,833.2,1015.86,825.43,1016.54Z" transform="translate(-61.14 -22.12)"/><path d="M436.66,496.21c18.09,1.51,29.36,10.48,32.76,26.22.27,1.28.57,2.84.09,3.92-.67,1.49-2.07,2.65-3.16,3.95-1.19-1.38-3.37-2.73-3.42-4.14-.4-13.12-8.32-19.5-19.83-22.73-8.53-2.39-21.75,3.65-25.42,12.91-1.19,3-1.43,6.35-2.58,9.37-.68,1.79-2.29,3.22-3.48,4.82-1.15-1.64-3.37-3.35-3.26-4.89.7-9.78,5-18.1,13.25-23.35C426.71,499,433,497.64,436.66,496.21Z" transform="translate(-61.14 -22.12)"/><path d="M451.93,117.09c-2.41.56-4.94,1.9-7.2,1.54-15.45-2.42-26.75-14-27.33-29.51-.47-12.38,7.19-24.22,19.4-29.17a26.45,26.45,0,0,1,9.58-2.13c1.73,0,3.48,2.17,5.22,3.36-1.65,1.13-3.36,3.29-5,3.22-12.48-.59-24,13.41-22.77,25.69,1.07,10.8,10.77,21.49,21.9,22.12,2.06.11,4.05,1.4,6.07,2.15Z" transform="translate(-61.14 -22.12)"/><path d="M659.12,920.16c16-.94,29.74,13.71,30.57,28.53.08,1.49-1.59,4.12-2.9,4.44-2.82.71-3.92-1.38-4-4.21-.29-10.43-5.49-17.55-15.25-20.95-13-4.53-27.37.9-31.68,14.78-.57,1.84,0,4.13-.77,5.79-.89,1.84-2.76,3.21-4.2,4.78-.85-1.51-2.45-3-2.44-4.52C628.54,934.48,640.89,919.65,659.12,920.16Z" transform="translate(-61.14 -22.12)"/><path d="M820.12,348.08c-4.49,6.41-9.36,3.72-13.07,2.63-12.2-3.6-18.77-12.59-21.77-24.68-2.29-9.21,4.57-24.44,12.23-28.68,4.94-2.74,10.51-4.48,16-6.07,1.55-.46,3.71,1.15,5.59,1.81-1.41,1.31-2.6,3.32-4.25,3.79-6.06,1.72-12.17,2.87-16.69,8.05-6.11,7-8,15-5.45,23.61,2.77,9.23,9,15.25,19.06,16.65C814.36,345.56,816.83,346.92,820.12,348.08Z" transform="translate(-61.14 -22.12)"/><path d="M126.36,470.08c0-.83-.29-1.8,0-2.46a26.92,26.92,0,0,1,2.47-3.52c1.08,1,2.66,1.81,3.15,3,1.94,4.85,3,10.07,5.37,14.71,3.13,6.29,15.72,11.25,22.57,9.45,15.21-4,18.1-9.93,21.15-23.08.38-1.64,2.16-3,3.3-4.41,1,1.79,2.93,3.72,2.71,5.36-2.3,17.24-13.89,28.36-31.44,28.65C141.41,498.08,126.31,483.81,126.36,470.08Z" transform="translate(-61.14 -22.12)"/><path d="M121.89,965.15c.42-14.85,10.7-28.81,26-31,1.13-.16,2.4-1.23,3.26-.92,1.67.6,3.09,1.89,4.61,2.9-1.05,1.12-1.89,2.72-3.18,3.26-4.34,1.84-8.91,3.15-13.28,4.93-9.59,3.9-14.33,21.28-7.55,32.09,4.83,7.71,11.81,10.52,19.94,12.3,1.53.33,2.78,2,4.16,3-1.81,1-3.68,3-5.43,2.91-7.5-.46-14-3.79-19.26-9A31.8,31.8,0,0,1,121.89,965.15Z" transform="translate(-61.14 -22.12)"/><path d="M1058.3,253.1c-1.72-1.28-3.3-2.43-4.85-3.63-2.87-2.23-5.72-6.22-8.56-6.21-2.5,0-5,4.49-7.46,7-.46.48-.79,1.27-1.34,1.44-1.63.52-3.34.81-5,1.19.14-1.84-.34-4.08.54-5.43,1.62-2.45,4.49-4.1,6-6.6a6.63,6.63,0,0,0-.08-5.86c-1.78-2.73-4.71-4.67-6.76-7.27-.94-1.19-.91-3.15-1.32-4.76,1.72.18,3.78-.19,5.09.64a34.34,34.34,0,0,1,7.17,6.11c2.35,2.66,4.16,2,6.15-.12,2.16-2.3,4.07-4.93,6.55-6.78,1.1-.83,3.35-.11,5.08-.09-.17,1.51.19,3.43-.61,4.44a73.75,73.75,0,0,1-6.66,6.69c-2.22,2.16-2.17,4.25.09,6.42,2.64,2.53,5.26,5.09,7.7,7.8a4,4,0,0,1,.65,3.1C1060.47,251.9,1059.26,252.36,1058.3,253.1Z" transform="translate(-61.14 -22.12)"/><path d="M422.77,629.38c2.44-2.07,5.39-4.27,8-6.85,3.23-3.25,2.92-5.75-.52-8.7-1.76-1.51-3.47-3.1-5.15-4.7-3.87-3.68-3.82-4,1.82-7.6l7.43,8.28c2.47,2.74,4.86,3.12,7.51.11a47.82,47.82,0,0,1,6.41-6.24c1.2-.95,3-1.06,4.61-1.56,0,2,.68,4.3-.14,5.79-1.25,2.25-3.5,4-5.42,5.79-2.66,2.55-3.11,4.87.07,7.46a32.39,32.39,0,0,1,5.95,6c.95,1.32.81,3.41,1.16,5.16-1.94-.23-4.31.16-5.73-.82-2.55-1.76-4.61-4.29-6.75-6.6s-3.94-2.21-5.88,0-4,4.86-6.22,7.11C426.64,635.35,425.42,635,422.77,629.38Z" transform="translate(-61.14 -22.12)"/><path d="M277.6,277.73a14.13,14.13,0,0,1-13.76-14.87c.17-6.39,7.9-13.66,14.28-13.43,7.33.25,14.21,7.9,13.88,15.43C291.7,271.51,284.47,278,277.6,277.73Zm.26-7.21a6.82,6.82,0,0,0,6.67-6.57c-.08-3.39-3.46-6.77-6.86-6.45-3.73.35-6.07,2.59-6.39,6.37C271,267.27,274.37,270.51,277.86,270.52Z" transform="translate(-61.14 -22.12)"/><path d="M643,797.92c6.64-.22,14.35,7.13,14.55,13.85.2,6.55-7.59,14.75-14.2,15s-14.4-7.82-14.47-14.62C628.81,805.07,635.69,798.15,643,797.92Zm.56,7.78c-4.42.15-7.12,3.1-6.77,6.92s2.87,5.88,6.63,6a6.2,6.2,0,0,0,6.11-7C649.15,807.74,646.8,805.83,643.56,805.7Z" transform="translate(-61.14 -22.12)"/><path d="M719.49,389.58c-.26-2.7-1.15-4.8-.45-5.84a71.9,71.9,0,0,1,7.58-9.15c1.94-2,2.08-3.48-.31-5.23a36.41,36.41,0,0,1-6.76-5.83c-1.07-1.29-2-4.13-1.3-5.19,1.74-2.67,3.93-1.27,5.68.67,1,1.11,2.09,2.14,3.16,3.19,5.95,5.78,5.95,5.78,11.64.05A54.68,54.68,0,0,1,744,357c.89-.69,2.47-.47,3.74-.66.07,1.39.73,3.18.1,4.1-2,2.85-4.4,5.35-6.63,8-1.88,2.23-3,4.22.23,6.54a29,29,0,0,1,6.64,6.66c.79,1.14,0,3.38,0,5.12-1.54-.27-3.35-.11-4.54-.9-1.89-1.26-3.37-3.16-5-4.79-4.39-4.34-4.93-4.36-9.21-.18-1.9,1.85-3.74,3.78-5.67,5.6C722.83,387.28,721.84,387.86,719.49,389.58Z" transform="translate(-61.14 -22.12)"/><path d="M166.25,619.14c-6.9,1.07-13.79-7.49-13.36-14.16.47-7.23,6.76-14.11,13.6-13.91S181,598.68,181.09,605C181.25,612.52,174.26,619.18,166.25,619.14Zm1.28-7.16c3.17-.2,5.3-2.5,5.71-6.23.38-3.42-3-6.93-6.54-6.74-3.84.2-6.17,2.39-6.5,6.26C159.9,608.78,163.15,612,167.53,612Z" transform="translate(-61.14 -22.12)"/><path d="M112.93,830.18a28.29,28.29,0,0,0-2.62-3c-2.25-2-5-3.54-6.79-5.83-1-1.34-.73-3.76-1-5.7,1.71.32,3.79.13,5.06,1,3.33,2.4,6.3,7.36,9.43,7.38s6.08-4.86,9.12-7.6c.62-.55,1.14-1.48,1.84-1.63a23.82,23.82,0,0,1,4.24-.22c0,1.59.78,3.71,0,4.68a72.78,72.78,0,0,1-7.6,7.92c-1.81,1.75-2,3.11.1,4.89a48.79,48.79,0,0,1,7.41,7.38c.95,1.24.51,3.52.7,5.33-1.74-.27-3.89,0-5.15-.93a52.37,52.37,0,0,1-6.79-6.62c-2.25-2.37-4.35-2.12-6.35.21s-3.47,5-5.79,6.8c-1.43,1.08-4,.67-6,.92.51-1.68.63-3.66,1.62-5,1.8-2.37,4.17-4.29,6.2-6.49A31.11,31.11,0,0,0,112.93,830.18Z" transform="translate(-61.14 -22.12)"/><path d="M874.49,272.25c-8.19-.06-13.84-5.95-13.76-14.35.08-7.2,6.49-14,13.7-13.63,6.54.31,14.37,5.54,14.31,15C888.69,266,881.67,272.3,874.49,272.25Zm.22-7.09c3.5-.09,6.78-3.4,6.44-6.8-.39-3.79-2.78-6-6.5-6.26-3.34-.28-6.76,3.25-6.73,6.57A6.91,6.91,0,0,0,874.71,265.16Z" transform="translate(-61.14 -22.12)"/><path d="M1028.06,631.49a13.84,13.84,0,0,1,13.78,14.35c-.33,8.47-7.25,13.29-14.29,13.6-7.74.34-14.08-7.06-13.83-15.09C1013.92,637.57,1020.79,631.41,1028.06,631.49Zm6.39,13.42a6.77,6.77,0,0,0-7-6.25c-3.87.35-5.92,2.81-6.22,6.49-.27,3.27,3.42,6.7,6.71,6.62S1034.6,648.19,1034.45,644.91Z" transform="translate(-61.14 -22.12)"/><path d="M557.58,527.4a13.47,13.47,0,0,1-13.73-13.92c0-7.54,6.57-14.18,13.91-14.06a14.6,14.6,0,0,1,14.13,14.48C571.79,521.24,565.21,527.44,557.58,527.4Zm.31-7.13c3.43-.1,6.83-3.57,6.37-6.88-.51-3.67-2.8-6-6.57-6.26-3.32-.23-6.71,3.36-6.65,6.69A7,7,0,0,0,557.89,520.27Z" transform="translate(-61.14 -22.12)"/><path d="M825.24,917.28l8.73-7.72c2.75-2.42,2.55-4.71-.1-7.13a54.4,54.4,0,0,1-6.62-6.79c-.86-1.12-.68-3-1-4.6,1.66.14,3.6-.21,4.93.53a21.63,21.63,0,0,1,5.74,4.75c3.28,3.82,6,3.27,8.95-.36a30.1,30.1,0,0,1,5.27-5.31c1-.77,2.75-.61,4.17-.87.19,1.77,1.18,4.08.41,5.18a43.34,43.34,0,0,1-6.94,7.14c-2.47,2.21-2.24,4.16,0,6.26a59.81,59.81,0,0,1,6.8,6.6c1,1.3,1,3.43,1.46,5.19-1.66-.39-3.57-.39-4.93-1.26a42.35,42.35,0,0,1-6.5-5.4c-3.21-3.12-5.74-2.5-8.15,1a50.72,50.72,0,0,1-3.84,4.59C830.27,922.91,829,922.78,825.24,917.28Z" transform="translate(-61.14 -22.12)"/><path d="M105.16,205.77c-2.94,3.55-5.6,7.17-8.73,10.33-1,1-3.22.58-4.89.82.25-1.55.08-3.35.83-4.59a37.62,37.62,0,0,1,4.52-5.3c4.61-5.17,4.6-5.49-.51-10.46a57.2,57.2,0,0,1-5.28-5.28c-.58-.73-.61-2.89-.08-3.27.91-.66,2.87-1,3.67-.48a52.24,52.24,0,0,1,8.79,7.19c2.32,2.51,3.76,1.87,5.64-.19a58.7,58.7,0,0,1,6.69-6.69c1.09-.85,3-.61,4.61-.87-.21,1.46,0,3.19-.71,4.33a52.75,52.75,0,0,1-5.56,7c-2.43,2.68-2.13,4.93.47,7.27a43.45,43.45,0,0,1,5.58,5.69c.91,1.19,1.08,3,1.59,4.45-1.9,0-4.34.76-5.6-.14C112.72,213.13,109.75,210,105.16,205.77Z" transform="translate(-61.14 -22.12)"/><path d="M866.6,666.35c3.3,3,6.21,5.7,9.23,8.29,2.74,2.36,3.15,4.55-.86,7.4-2.89-2.57-6.05-5.12-8.91-8-2.68-2.69-5-2.89-7.55,0a50.21,50.21,0,0,1-6.34,6.37c-1.13.89-3,.79-4.6,1.13.3-1.64.12-3.59,1-4.85a78.9,78.9,0,0,1,6.93-8.48c1.71-1.9,1.67-3.39-.25-5a68.07,68.07,0,0,1-7.31-6.77c-.88-1-.64-3-.91-4.55,1.57.14,3.63-.31,4.64.52,10.43,8.51,10.34,8.52,20.34-.83,1-.89,2.91-.69,4.4-1-.09,1.72.46,3.92-.39,5.07C873.46,659.12,870.38,662.15,866.6,666.35Z" transform="translate(-61.14 -22.12)"/><path d="M974,69.85c-9.15,0-18.3.22-27.43-.17-2.1-.09-4.11-2.28-6.17-3.5,2-1.12,3.93-3.19,5.92-3.22,18.61-.24,37.23-.15,55.85-.13a7.32,7.32,0,0,1,3.41.47c1.09.62,2.49,1.85,2.51,2.84a4,4,0,0,1-2.27,3,31.34,31.34,0,0,1-7.39.64C990.26,69.9,982.11,69.86,974,69.85Z" transform="translate(-61.14 -22.12)"/><path d="M424.51,225.67c-1.77,2-3.3,3.9-5,5.62-7,7.11-7.95,5.64.21,13.57a23.65,23.65,0,0,1,3.51,3.49c.67,1,.66,2.44.94,3.68-1.57,0-3.55.66-4.65-.06a54,54,0,0,1-7.16-6.15c-3-2.84-5.65-2.15-8.06.74-1.59,1.91-2.76,4.35-4.69,5.74-1.35,1-4.18,1.39-5.48.6-2.78-1.66-.33-3.27,1-4.65,9-9.6,8.92-9.53,0-19-1.2-1.26-1.28-3.58-1.88-5.42,2.05.33,4.42.11,6.1,1.08,3.34,1.92,6.45,6.46,9.39,6.25,3.14-.22,5.89-4.78,9-7.23a7,7,0,0,1,4.18-1.66C422.63,222.33,423.37,224.16,424.51,225.67Z" transform="translate(-61.14 -22.12)"/><path d="M171.36,62.52c.9.8,2.22,1.46,2.18,2-.16,1.83-.27,4.11-1.37,5.34C168.3,74.21,164,78.2,159.9,82.31c-9.55,9.51-19.14,19-28.63,28.57-1.93,2-4.06,3.77-6.11,1.17-.73-.92.38-4.35,1.65-5.64,13.8-14,27.78-27.81,41.74-41.65A34.07,34.07,0,0,1,171.36,62.52Z" transform="translate(-61.14 -22.12)"/><path d="M490.59,874.82c-1.1-.78-2.77-1.49-2.71-2a7.43,7.43,0,0,1,1.67-4.22c8.5-8.68,17.13-17.23,25.72-25.82,5.3-5.29,10.49-10.7,16-15.74,1.16-1,3.61-.69,5.46-1-.3,1.75,0,4.13-1,5.17-13.63,13.87-27.43,27.58-41.26,41.26C493.53,873.46,492.07,874,490.59,874.82Z" transform="translate(-61.14 -22.12)"/><path d="M189.1,272.88c9.65-.06,19.3-.26,28.94-.05,1.88.05,3.73,1.69,5.59,2.59-1.75,1.07-3.48,3.05-5.24,3.07q-28.93.45-57.88.24c-1.59,0-3.16-1.88-4.73-2.89,1.62-.9,3.22-2.54,4.87-2.59,9.48-.3,19-.23,28.45-.28Z" transform="translate(-61.14 -22.12)"/><path d="M759.57,675.26c-2,.64-4.05,1.82-6.08,1.83-19,.15-37.91.18-56.86,0-1.84,0-3.66-1.85-5.49-2.84,1.8-1,3.6-3,5.41-3,19-.2,37.91-.15,56.86,0,2,0,4.07,1.06,6.1,1.62Z" transform="translate(-61.14 -22.12)"/><path d="M396.51,992.88c-2.17.68-4.34,1.92-6.52,1.94-18.28.16-36.57.1-54.85.1-1,0-2.22.32-2.94-.14a34.84,34.84,0,0,1-4.06-3.56c1.44-.85,2.88-2.43,4.33-2.44q29.67-.22,59.33,0c1.58,0,3.15,1.27,4.72,2C396.52,991.44,396.51,992.16,396.51,992.88Z" transform="translate(-61.14 -22.12)"/><path d="M1021.4,516.64a27,27,0,0,1-2.45,3.41c-13.69,13.75-27.38,27.52-41.23,41.11-1.05,1-3.36.75-5.08,1.08.26-1.71-.11-4,.87-5q20.75-21.15,41.88-42a5.41,5.41,0,0,1,3.86-1.2C1020,514.1,1020.6,515.62,1021.4,516.64Z" transform="translate(-61.14 -22.12)"/><path d="M729.36,203.45c9.66,0,19.31-.12,29,.12,1.74,0,3.45,1.6,5.17,2.46-1.68,1.13-3.36,3.24-5,3.26-19,.22-38,.13-56.92.1a6.14,6.14,0,0,1-2.94-.32,21.78,21.78,0,0,1-3.32-2.93c1.21-.84,2.41-2.37,3.65-2.41,8.31-.23,16.64-.15,25-.17h5.49Z" transform="translate(-61.14 -22.12)"/><polygon points="319.2 127.09 365.16 173.04 382.1 110.91 319.2 127.09"/></svg>