<svg id="Layer_1" data-name="Layer 1" xmlns="http://www.w3.org/2000/svg" xmlns:xlink="http://www.w3.org/1999/xlink" viewBox="0 0 10839.46 991.36"><defs><style>.cls-1{fill:#fff;}.cls-2{fill:url(#linear-gradient);}.cls-3{fill:url(#linear-gradient-2);}.cls-4{opacity:0.68;fill:url(#linear-gradient-3);}.cls-5{fill:url(#linear-gradient-4);}.cls-6{fill:url(#linear-gradient-5);}</style><linearGradient id="linear-gradient" x1="391.11" y1="491.29" x2="1284.93" y2="491.29" gradientUnits="userSpaceOnUse"><stop offset="0" stop-color="#ba9bc9"/><stop offset="1" stop-color="#0071bc"/></linearGradient><linearGradient id="linear-gradient-2" x1="877.13" y1="783.97" x2="1274.37" y2="783.97" gradientUnits="userSpaceOnUse"><stop offset="0" stop-color="#ba9bc9"/><stop offset="1" stop-color="#fff"/></linearGradient><linearGradient id="linear-gradient-3" x1="4494.51" y1="375.29" x2="5448.32" y2="375.29" gradientUnits="userSpaceOnUse"><stop offset="0" stop-color="#f15a24"/><stop offset="1" stop-color="#ffda54"/></linearGradient><linearGradient id="linear-gradient-4" x1="-2473.38" y1="-2488.62" x2="-2188.38" y2="-2488.62" gradientTransform="translate(5204.33 3867.22) rotate(45)" gradientUnits="userSpaceOnUse"><stop offset="0" stop-color="#fff"/><stop offset="1" stop-color="#00a99d"/></linearGradient><linearGradient id="linear-gradient-5" x1="7831.75" y1="511.97" x2="8246.47" y2="511.97" gradientUnits="userSpaceOnUse"><stop offset="0" stop-color="#ffa8d5"/><stop offset="0.98" stop-color="#ba9bc9"/></linearGradient></defs><title>nav_art2</title><path class="cls-1" d="M-6550.4-233.44V.74s-7.11,134.18,143.54,200c0,0,136.43,32.91,218.86-25.32S-6026.8-11.79-5844.24-4.43c218,8.79,320.29-157.07,320.29-157.07s70.73-90,313.11-83c102.75,2.95,263.54-2.82,263.54-2.82H1907.35V-772.58H-6550.46Z" transform="translate(6550.46 772.58)"/><circle class="cls-2" cx="838.02" cy="491.29" r="446.91"/><circle class="cls-3" cx="1075.75" cy="783.97" r="198.62"/><polygon class="cls-4" points="5448.32 343.7 5058.39 634.56 4494.51 634.56 4698.45 116.02 5448.32 343.7"/><polygon class="cls-5" points="5053.73 634.56 5315.01 258.67 5552.59 258.67 5564.61 412.11 5053.73 634.56"/><rect class="cls-1" x="8324.91" width="2514.54" height="98.94"/><polygon class="cls-6" points="7831.75 328.96 7831.75 694.99 8203.24 580.26 8246.47 370.01 7831.75 328.96"/><path class="cls-1" d="M1887-247.36s432,13.08,452-426.28L1807-707Z" transform="translate(6550.46 772.58)"/><circle class="cls-1" cx="1502.17" cy="587.82" r="403.54"/></svg>