<svg id="Layer_1" data-name="Layer 1" xmlns="http://www.w3.org/2000/svg" xmlns:xlink="http://www.w3.org/1999/xlink" viewBox="0 0 8457.8 1338.45"><defs><style>.cls-1{fill:#fff;}.cls-2{fill:url(#linear-gradient);}.cls-3{fill:url(#linear-gradient-2);}.cls-4{opacity:0.68;fill:url(#linear-gradient-3);}.cls-5{fill:url(#linear-gradient-4);}.cls-6{fill:url(#linear-gradient-5);}</style><linearGradient id="linear-gradient" x1="390.08" y1="891.54" x2="1283.9" y2="891.54" gradientUnits="userSpaceOnUse"><stop offset="0" stop-color="#ba9bc9"/><stop offset="1" stop-color="#0071bc"/></linearGradient><linearGradient id="linear-gradient-2" x1="969.13" y1="601.24" x2="1366.37" y2="601.24" gradientUnits="userSpaceOnUse"><stop offset="0" stop-color="#ba9bc9"/><stop offset="1" stop-color="#fff"/></linearGradient><linearGradient id="linear-gradient-3" x1="1517.96" y1="434.21" x2="2471.77" y2="434.21" gradientUnits="userSpaceOnUse"><stop offset="0" stop-color="#f15a24"/><stop offset="1" stop-color="#ffda54"/></linearGradient><linearGradient id="linear-gradient-4" x1="1436.91" y1="384.21" x2="1721.91" y2="384.21" gradientUnits="userSpaceOnUse"><stop offset="0" stop-color="#fff"/><stop offset="1" stop-color="#00a99d"/></linearGradient><linearGradient id="linear-gradient-5" x1="7888.69" y1="522.6" x2="8344.08" y2="522.6" gradientUnits="userSpaceOnUse"><stop offset="0" stop-color="#ffa8d5"/><stop offset="0.98" stop-color="#ba9bc9"/></linearGradient></defs><title>nav_art</title><path class="cls-1" d="M-4015.86-546.8v234.18s-7.1,134.18,143.54,200c0,0,136.44,32.91,218.86-25.32s161.2-187.21,343.76-179.85c218,8.79,320.3-157.07,320.3-157.07s70.73-90,313.1-83c102.76,2.95,263.54-2.82,263.54-2.82H4441.89v-525.22h-8457.8Z" transform="translate(4015.91 1085.94)"/><circle class="cls-2" cx="836.99" cy="891.54" r="446.91"/><circle class="cls-3" cx="1167.75" cy="601.24" r="198.62"/><polygon class="cls-4" points="2471.77 402.62 2081.85 693.49 1517.96 693.49 1721.91 174.94 2471.77 402.62"/><polygon class="cls-5" points="1517.96 693.49 1436.91 242.94 1604.91 74.94 1721.91 174.94 1517.96 693.49"/><polygon class="cls-6" points="7888.69 321.64 7888.69 723.56 8296.61 597.58 8344.08 366.71 7888.69 321.64"/></svg>