<svg id="Layer_1" data-name="Layer 1" xmlns="http://www.w3.org/2000/svg" xmlns:xlink="http://www.w3.org/1999/xlink" viewBox="0 0 13100.91 1338.45"><defs><style>.cls-1{fill:#fff;}.cls-2{fill:url(#linear-gradient);}.cls-3{fill:url(#linear-gradient-2);}.cls-4{opacity:0.68;fill:url(#linear-gradient-3);}.cls-5{fill:url(#linear-gradient-4);}.cls-6{fill:url(#linear-gradient-5);}</style><linearGradient id="linear-gradient" x1="390.08" y1="891.54" x2="1283.9" y2="891.54" gradientUnits="userSpaceOnUse"><stop offset="0" stop-color="#ba9bc9"/><stop offset="1" stop-color="#0071bc"/></linearGradient><linearGradient id="linear-gradient-2" x1="969.13" y1="601.24" x2="1366.37" y2="601.24" gradientUnits="userSpaceOnUse"><stop offset="0" stop-color="#ba9bc9"/><stop offset="1" stop-color="#fff"/></linearGradient><linearGradient id="linear-gradient-3" x1="1517.96" y1="434.21" x2="2471.77" y2="434.21" gradientUnits="userSpaceOnUse"><stop offset="0" stop-color="#f15a24"/><stop offset="1" stop-color="#ffda54"/></linearGradient><linearGradient id="linear-gradient-4" x1="1436.91" y1="384.21" x2="1721.91" y2="384.21" gradientUnits="userSpaceOnUse"><stop offset="0" stop-color="#fff"/><stop offset="1" stop-color="#00a99d"/></linearGradient><linearGradient id="linear-gradient-5" x1="7831.75" y1="511.97" x2="8246.47" y2="511.97" gradientUnits="userSpaceOnUse"><stop offset="0" stop-color="#ffa8d5"/><stop offset="0.98" stop-color="#ba9bc9"/></linearGradient></defs><title>nav_artwrok</title><path class="cls-1" d="M-6550.4-233.44V.74s-7.11,134.18,143.54,200c0,0,136.43,32.91,218.86-25.32S-6026.8-11.79-5844.24-4.43c218,8.79,320.29-157.07,320.29-157.07s70.73-90,313.11-83c102.75,2.95,263.54-2.82,263.54-2.82H1907.35V-772.58H-6550.46Z" transform="translate(6550.46 772.58)"/><circle class="cls-2" cx="836.99" cy="891.54" r="446.91"/><circle class="cls-3" cx="1167.75" cy="601.24" r="198.62"/><polygon class="cls-4" points="2471.77 402.62 2081.85 693.49 1517.96 693.49 1721.91 174.94 2471.77 402.62"/><polygon class="cls-5" points="1517.96 693.49 1436.91 242.94 1604.91 74.94 1721.91 174.94 1517.96 693.49"/><rect class="cls-1" x="8324.91" width="4776" height="98.94"/><polygon class="cls-6" points="7831.75 328.96 7831.75 694.99 8203.24 580.26 8246.47 370.01 7831.75 328.96"/><path class="cls-1" d="M1887-247.36s432,13.08,452-426.28L1807-707Z" transform="translate(6550.46 772.58)"/></svg>