<svg id="Layer_1" data-name="Layer 1" xmlns="http://www.w3.org/2000/svg" viewBox="0 0 900.46 294.72"><defs><style>.cls-1{fill:none;stroke:#000;stroke-miterlimit:10;stroke-width:20px;}</style></defs><title>prachin-black</title><path class="cls-1" d="M447.2-344.95h50.64S551-346.22,551-396.85V-528.49s-7.43-103.84,84.81-82.28c0,0,54.43,10.12,45.57,70.88S589-486.72,589-486.72v92.4s39.82,45.59,112,45.59c0,0-22.94,14.73-15.94-49.27v-58h66l-29,24v33s-9,56.52,36,54.76,63,0,63,0V-420s-1-34,43-44c0,0,51-10,60,39v84.5h46v-87.17s3.67-39.33,65.67-38V-498.5H1071v70.83h48s25.33-3.33,25.33,37.34v49.83h45.34V-433H1253v30l41.33-34s43.34-16.67,43.34,24.67V-329" transform="translate(-447.2 623.72)"/><line class="cls-1" x1="522.8" y1="283.22" x2="597.13" y2="283.22"/><path class="cls-1" d="M1191-471.36" transform="translate(-447.2 623.72)"/><polyline class="cls-1" points="743.8 160.22 743.8 150.22 743.8 140.22 743.8 135.22"/></svg>